<svg width="120" height="120" viewBox="0 0 120 120" fill="none" xmlns="http://www.w3.org/2000/svg">
<path d="M35.521 42.9904C33.941 59.1804 31.461 65.1004 30.121 67.2004C29.781 67.7204 30.111 68.4204 30.721 68.5004L58.111 72.0904L59.771 16.2704C59.771 16.2704 38.431 13.0404 35.521 42.9904Z" fill="#441D39"/>
<path d="M90.3672 67.2004C89.0172 65.1004 86.5372 59.1804 84.9672 42.9904C82.0572 13.0404 60.1172 16.2504 60.1172 16.2504L62.3872 72.0804L89.7772 68.4904C90.3972 68.4104 90.7172 67.7204 90.3772 67.1904L90.3672 67.2004Z" fill="#441D39"/>
<path d="M50.4203 68.5195L49.0703 79.8595L69.9503 79.2595L68.5503 68.5195H50.4203Z" fill="#FFC7A4"/>
<path d="M49.6406 75.0594C49.6406 75.0594 63.6906 76.3494 68.6406 70.1894V63.1094L50.8306 64.8194L49.6406 75.0594Z" fill="#F2B594"/>
<path d="M84.1086 45.5693C83.8686 43.0293 81.7986 42.6493 80.7886 42.6193C79.7986 29.3193 70.4286 16.2793 59.7786 16.2793C49.1286 16.2793 40.9686 29.3193 39.9786 42.6193C39.1086 42.6093 36.6886 42.8193 36.4286 45.5793C36.1086 48.9493 37.2386 51.5393 39.3386 52.6593C39.3386 52.6593 39.7886 52.8793 40.8186 53.0593V52.9893C43.4186 63.6493 51.1986 71.3793 60.3886 71.3793C69.5786 71.3793 77.3486 63.6593 79.9586 53.0093C80.8186 52.8393 81.2086 52.6593 81.2086 52.6593C83.3086 51.5393 84.4386 48.9493 84.1186 45.5793L84.1086 45.5693Z" fill="#FFC7A4"/>
<path d="M46.3237 39.8806C49.7037 39.2706 52.6937 39.7506 54.2137 40.0406C54.6737 40.1306 55.1337 39.9106 55.2737 39.5306C55.4337 39.1006 55.1337 38.6606 54.6137 38.5606C52.8837 38.2306 49.7737 37.7306 46.5137 38.8706C46.0137 39.0506 45.1237 39.5406 45.3937 39.9306C45.5437 40.0706 45.8737 39.9506 46.3237 39.8706V39.8806Z" fill="#441D39"/>
<path d="M74.6337 39.8806C71.2537 39.2706 68.2637 39.7506 66.7437 40.0406C66.2837 40.1306 65.8237 39.9106 65.6837 39.5306C65.5237 39.1006 65.8237 38.6606 66.3437 38.5606C68.0737 38.2306 71.1837 37.7306 74.4437 38.8706C74.9437 39.0506 75.8337 39.5406 75.5637 39.9306C75.4137 40.0706 75.0837 39.9506 74.6337 39.8706V39.8806Z" fill="#441D39"/>
<path d="M70.0694 46.8094C70.7376 46.8094 71.2794 45.8692 71.2794 44.7094C71.2794 43.5496 70.7376 42.6094 70.0694 42.6094C69.4011 42.6094 68.8594 43.5496 68.8594 44.7094C68.8594 45.8692 69.4011 46.8094 70.0694 46.8094Z" fill="#441D39"/>
<path d="M51.9209 46.8094C52.5892 46.8094 53.1309 45.8692 53.1309 44.7094C53.1309 43.5496 52.5892 42.6094 51.9209 42.6094C51.2527 42.6094 50.7109 43.5496 50.7109 44.7094C50.7109 45.8692 51.2527 46.8094 51.9209 46.8094Z" fill="#441D39"/>
<path d="M61.7978 54.5795H59.8878C58.8778 54.5795 58.0578 54.2695 57.7378 53.7595C57.5578 53.4795 57.5378 53.1595 57.6778 52.8595C58.1178 51.9295 58.4778 51.0295 58.4778 51.0295C58.5778 50.7695 58.8778 50.6495 59.1278 50.7595C59.3878 50.8595 59.5078 51.1595 59.3978 51.4095C59.3978 51.4095 59.0278 52.3295 58.5778 53.2895C58.6278 53.3195 59.0378 53.5795 59.8878 53.5795H61.7978C62.0778 53.5795 62.2978 53.7995 62.2978 54.0795C62.2978 54.3595 62.0778 54.5795 61.7978 54.5795Z" fill="#EDA07E"/>
<path d="M59.9665 60.87C57.6365 60.87 55.8665 60.55 55.7365 60.52C55.4665 60.47 55.2865 60.21 55.3365 59.94C55.3865 59.67 55.6565 59.49 55.9165 59.54C55.9765 59.54 61.5465 60.57 65.9065 58.94C66.1665 58.84 66.4565 58.97 66.5465 59.23C66.6465 59.49 66.5165 59.78 66.2565 59.87C64.1665 60.65 61.8765 60.87 59.9565 60.87H59.9665Z" fill="#EDA07E"/>
<path d="M71.0681 50.5297C72.9956 50.5297 74.5581 50.1715 74.5581 49.7297C74.5581 49.2879 72.9956 48.9297 71.0681 48.9297C69.1406 48.9297 67.5781 49.2879 67.5781 49.7297C67.5781 50.1715 69.1406 50.5297 71.0681 50.5297Z" fill="#EAA281"/>
<path d="M50.7088 50.5297C52.6362 50.5297 54.1988 50.1715 54.1988 49.7297C54.1988 49.2879 52.6362 48.9297 50.7088 48.9297C48.7813 48.9297 47.2188 49.2879 47.2188 49.7297C47.2188 50.1715 48.7813 50.5297 50.7088 50.5297Z" fill="#EAA281"/>
<path d="M40.7891 36.2291L39.7891 36.1691C40.7691 19.5091 56.2991 17.1391 56.4591 17.1191L56.5991 18.1091C56.5991 18.1091 52.8191 18.6691 49.0191 21.1791C43.9491 24.5291 41.1891 29.5891 40.7891 36.2291Z" fill="#30132B"/>
<path d="M60.1172 16.2598V24.9298C60.1172 24.9298 74.8672 22.7598 80.8872 42.6198C80.8872 42.6198 84.9772 15.8998 60.1172 16.2698V16.2598Z" fill="#441D39"/>
<path d="M59.772 16.2692V24.9392C59.772 24.9392 45.902 23.1292 39.882 42.9892C39.882 42.9892 34.912 15.9092 59.772 16.2692Z" fill="#441D39"/>
<path d="M98.79 91.8006C92.02 89.5206 76.98 81.9606 71.7 79.2606C71.7 79.2306 71.7 79.2005 71.68 79.1705L70.52 75.4406C70.36 74.9206 69.88 74.5605 69.33 74.5605H49.28C48.68 74.5605 48.17 74.9805 48.06 75.5705L46.6 79.1206C46.56 79.3106 46.57 79.4906 46.61 79.6606C40.77 82.6306 26.75 89.6305 20.28 91.8105C12 94.6005 12 108.741 12 108.741H107.08C107.08 108.741 107.08 94.6005 98.8 91.8105L98.79 91.8006Z" fill="#4598C4"/>
<path d="M40.2131 56.9598C39.9231 56.9598 39.7931 56.9598 39.7431 56.4198H39.7231C39.7231 56.4198 39.7231 56.2998 39.7231 56.1598C39.7031 55.6998 39.7031 54.9898 39.7031 53.8598C39.7031 52.7298 39.7031 52.0198 39.7231 51.5598C39.7231 51.4198 39.7231 51.3298 39.7231 51.2998H39.7431C39.8031 50.7598 39.9231 50.7598 40.2131 50.7598C40.5031 50.7598 40.6331 50.7598 40.6831 51.2998H40.7031C40.7031 51.2998 40.7031 51.4198 40.7031 51.5598C40.7231 52.0198 40.7231 52.7298 40.7231 53.8598C40.7231 54.9898 40.7231 55.6998 40.7031 56.1598C40.7031 56.2998 40.7031 56.3898 40.7031 56.4198H40.6831C40.6231 56.9598 40.5031 56.9598 40.2131 56.9598Z" fill="#FFA33A"/>
<path d="M81.2288 56.9598C80.9388 56.9598 80.8088 56.9598 80.7588 56.4198H80.7388C80.7388 56.4198 80.7388 56.2998 80.7388 56.1598C80.7188 55.6998 80.7188 54.9898 80.7188 53.8598C80.7188 52.7298 80.7188 52.0198 80.7388 51.5598C80.7388 51.4198 80.7388 51.3298 80.7388 51.2998H80.7588C80.8188 50.7598 80.9388 50.7598 81.2288 50.7598C81.5188 50.7598 81.6488 50.7598 81.6988 51.2998H81.7188C81.7188 51.2998 81.7188 51.4198 81.7188 51.5598C81.7387 52.0198 81.7388 52.7298 81.7388 53.8598C81.7388 54.9898 81.7387 55.6998 81.7188 56.1598C81.7188 56.2998 81.7188 56.3898 81.7188 56.4198H81.6988C81.6388 56.9598 81.5188 56.9598 81.2288 56.9598Z" fill="#FFA33A"/>
<path d="M50.6386 82.1309C50.6386 82.1309 50.5786 82.1309 50.5586 82.1309C50.2886 82.0809 50.0986 81.8309 50.1486 81.5509L50.9086 77.1109C50.9586 76.8409 51.2186 76.6609 51.4886 76.7009C51.7586 76.7509 51.9486 77.0009 51.8986 77.2809L51.1386 81.7209C51.0986 81.9609 50.8886 82.1409 50.6486 82.1409L50.6386 82.1309Z" fill="#2579AD"/>
<path d="M67.5783 82.1291C67.3383 82.1291 67.1283 81.9591 67.0883 81.7091L66.3283 77.2691C66.2783 76.9991 66.4683 76.7392 66.7383 76.6892C67.0083 76.6492 67.2683 76.8291 67.3183 77.0991L68.0783 81.5391C68.1283 81.8091 67.9383 82.0692 67.6683 82.1192C67.6383 82.1192 67.6083 82.1192 67.5883 82.1192L67.5783 82.1291Z" fill="#2579AD"/>
<path d="M59.5469 82.5508C59.2669 82.5508 59.0469 82.3308 59.0469 82.0508V77.5508C59.0469 77.2708 59.2669 77.0508 59.5469 77.0508C59.8269 77.0508 60.0469 77.2708 60.0469 77.5508V82.0508C60.0469 82.3308 59.8269 82.5508 59.5469 82.5508Z" fill="#2579AD"/>
</svg>
