<svg width="312" height="312" viewBox="0 0 312 312" fill="none" xmlns="http://www.w3.org/2000/svg">
<path d="M153.737 43.1059C155.375 43.4959 157.013 43.6779 158.677 43.5219C166.893 42.8199 194.843 42.5079 206.907 69.1319C221.103 100.54 228.825 109.042 218.919 145.546C209.013 182.05 216.917 180.672 222.039 199.262L222.195 199.808C224.951 209.818 216.839 219.49 206.465 218.632L186.627 216.942C185.197 216.812 183.741 216.916 182.337 217.202C171.053 219.542 117.155 230.228 96.4851 224.82C89.4131 222.974 83.3552 220.738 78.3112 218.502C69.6792 214.68 66.9751 203.916 72.3311 196.142C74.5931 192.892 76.3611 189.33 76.7251 185.924C77.8171 175.42 70.5111 165.956 73.3971 148.146C78.2071 118.324 87.3332 121.08 88.9452 102.464C89.8812 91.8039 105.923 31.6919 153.711 43.1059H153.737Z" fill="#EB3F3A"/>
<path d="M153.737 43.1059C155.375 43.4959 157.013 43.6779 158.677 43.5219C166.893 42.8199 194.843 42.5079 206.907 69.1319C221.103 100.54 228.825 109.042 218.919 145.546C209.013 182.05 216.917 180.672 222.039 199.262L222.195 199.808C224.951 209.818 216.839 219.49 206.465 218.632L186.627 216.942C185.197 216.812 183.741 216.916 182.337 217.202C171.053 219.542 117.155 230.228 96.4851 224.82C89.4131 222.974 83.3552 220.738 78.3112 218.502C69.6792 214.68 66.9751 203.916 72.3311 196.142C74.5931 192.892 76.3611 189.33 76.7251 185.924C77.8171 175.42 70.5111 165.956 73.3971 148.146C78.2071 118.324 87.3332 121.08 88.9452 102.464C89.8812 91.8039 105.923 31.6919 153.711 43.1059H153.737Z" fill="#EB3F3A"/>
<path d="M256.854 238.679C235.326 231.425 181.532 203.579 181.532 203.579L178.204 178.151H131.092L128.05 203.579C128.05 203.579 74.282 231.425 52.728 238.679C31.174 245.933 31.2 282.697 31.2 282.697H278.408C278.408 282.697 278.408 245.933 256.88 238.679H256.854Z" fill="#FFB69F"/>
<path d="M154.804 211.616C169.58 211.616 181.558 208.019 181.558 203.582C181.558 199.145 169.58 195.548 154.804 195.548C140.028 195.548 128.05 199.145 128.05 203.582C128.05 208.019 140.028 211.616 154.804 211.616Z" fill="#FFB69F"/>
<path d="M129.063 195.154C129.063 195.154 165.593 198.508 178.463 182.492V164.084L132.157 168.53L129.063 195.154V195.154Z" fill="#FF9988"/>
<path d="M156.988 185.536C186.439 185.536 210.314 155.014 210.314 117.364C210.314 79.7135 186.439 49.1919 156.988 49.1919C127.537 49.1919 103.662 79.7135 103.662 117.364C103.662 155.014 127.537 185.536 156.988 185.536Z" fill="#FFB69F"/>
<path d="M208.624 110.836C208.624 110.836 217.828 109.718 218.66 118.48C219.492 127.242 216.554 133.976 211.094 136.888C211.094 136.888 209.924 137.46 207.246 137.928L208.624 110.862V110.836Z" fill="#FFB69F"/>
<path d="M104.728 110.836C104.728 110.836 95.5236 109.718 94.6916 118.48C93.8596 127.242 96.7976 133.976 102.258 136.888C102.258 136.888 103.428 137.46 106.106 137.928L104.728 110.862V110.836Z" fill="#FFB69F"/>
<path d="M103.662 111.463C103.662 111.463 99.7876 48.6985 156.988 49.4525V115.129L103.662 111.463V111.463Z" fill="#FFB69F"/>
<path d="M210.288 111.463C210.288 111.463 214.162 48.6985 156.962 49.4525V115.129L210.288 111.463V111.463Z" fill="#FFB69F"/>
<path d="M120.431 103.69C129.219 102.104 136.993 103.352 140.945 104.106C142.141 104.34 143.337 103.768 143.701 102.78C144.117 101.662 143.337 100.518 141.985 100.258C137.487 99.3995 129.401 98.0995 120.925 101.064C119.625 101.532 117.311 102.806 118.013 103.82C118.403 104.184 119.261 103.872 120.431 103.664V103.69Z" fill="#EB3F3A"/>
<path d="M194.091 103.717C185.303 102.131 177.529 103.379 173.577 104.133C172.381 104.367 171.185 103.769 170.821 102.781C170.405 101.663 171.185 100.493 172.537 100.233C177.035 99.3486 185.121 98.0486 193.597 101.065C194.897 101.533 197.211 102.807 196.509 103.847C196.119 104.211 195.261 103.899 194.091 103.691V103.717Z" fill="#EB3F3A"/>
<path d="M182.183 122.822C183.92 122.822 185.329 120.377 185.329 117.362C185.329 114.346 183.92 111.902 182.183 111.902C180.445 111.902 179.037 114.346 179.037 117.362C179.037 120.377 180.445 122.822 182.183 122.822Z" fill="#441D39"/>
<path d="M134.992 121.704C136.729 121.704 138.138 119.26 138.138 116.244C138.138 113.229 136.729 110.784 134.992 110.784C133.254 110.784 131.846 113.229 131.846 116.244C131.846 119.26 133.254 121.704 134.992 121.704Z" fill="#441D39"/>
<path d="M160.654 141.908H155.688C153.478 141.908 151.528 141.05 150.488 139.62C149.734 138.606 149.526 137.41 149.89 136.24C151.034 132.496 151.996 128.934 151.996 128.934C152.178 128.232 152.906 127.842 153.582 128.024C154.284 128.206 154.7 128.934 154.492 129.61C154.492 129.61 153.53 133.224 152.36 136.994C152.256 137.384 152.308 137.722 152.568 138.086C153.114 138.814 154.336 139.308 155.688 139.308H160.654C161.382 139.308 161.954 139.88 161.954 140.608C161.954 141.336 161.382 141.908 160.654 141.908V141.908Z" fill="#FF9988"/>
<path d="M149.369 158.833C146.951 158.833 145.365 158.703 145.183 158.677C144.481 158.625 143.935 157.975 144.013 157.273C144.065 156.545 144.715 156.051 145.417 156.077C145.573 156.077 160.237 157.273 171.105 151.917C171.755 151.605 172.535 151.865 172.847 152.515C173.159 153.165 172.899 153.945 172.249 154.257C164.293 158.183 154.751 158.807 149.395 158.807L149.369 158.833Z" fill="#FF9988"/>
<path d="M184.782 131.377C189.794 131.377 193.856 130.446 193.856 129.297C193.856 128.149 189.794 127.217 184.782 127.217C179.771 127.217 175.708 128.149 175.708 129.297C175.708 130.446 179.771 131.377 184.782 131.377Z" fill="#FF9988"/>
<path d="M131.845 131.377C136.857 131.377 140.919 130.446 140.919 129.297C140.919 128.149 136.857 127.217 131.845 127.217C126.834 127.217 122.771 128.149 122.771 129.297C122.771 130.446 126.834 131.377 131.845 131.377Z" fill="#FF9988"/>
<path d="M181.556 203.582C181.556 203.582 180.802 194.846 180.334 194.3C168.608 198.018 146.482 197.602 129.244 193.598C129.244 193.598 127.762 199.422 106.104 214.684L74.1765 229.894L71.2385 282.7H235.402L229.942 227.606L181.582 203.582H181.556Z" fill="#1C2642"/>
<path d="M174.746 47.192C174.668 47.062 174.616 46.906 174.538 46.802C172.848 43.994 146.822 42.85 144.664 43.526C142.922 44.072 120.484 56.994 111.956 61.934C109.85 63.156 108.238 65.054 107.406 67.342L90.09 114.298C89.674 115.416 89.466 116.612 89.44 117.834L88.764 212.526C88.738 217.882 85.852 221.418 91.182 221.964L114.634 224.642C119.756 225.162 124.462 221.886 125.762 216.92L127.582 206.598C128.206 204.206 127.478 202.334 127.764 199.422C128.752 189.698 112.892 167.26 115.154 160.448C117.962 151.972 121.81 142.898 122.486 131.406C123.162 119.914 115.726 99.634 126.204 74.986C134.628 55.174 154.18 59.126 161.512 61.44C162.058 61.622 162.63 61.726 163.202 61.804C163.202 61.804 205.322 74.856 206.414 121.708C206.414 121.708 208.13 124.36 209.222 121.24C216.736 99.582 206.986 51.846 174.72 47.218L174.746 47.192Z" fill="#EB3F3A"/>
<path d="M210.235 134.003C211.212 134.003 212.003 133.212 212.003 132.235C212.003 131.259 211.212 130.467 210.235 130.467C209.259 130.467 208.467 131.259 208.467 132.235C208.467 133.212 209.259 134.003 210.235 134.003Z" fill="white"/>
</svg>
