<svg width="193" height="232" viewBox="0 0 193 232" fill="none" xmlns="http://www.w3.org/2000/svg">
<path d="M38.4352 215.429L43.2921 218.229" stroke="#CDB4C9" stroke-width="2"/>
<path d="M178.841 36.2951C180.952 33.4756 181.516 31.0069 180.531 28.8891C180.444 28.7023 180.305 28.5454 180.129 28.4379C179.954 28.3304 179.75 28.2769 179.544 28.2841C179.337 28.2913 179.137 28.3588 178.968 28.4784C178.798 28.5979 178.667 28.7641 178.59 28.9566C177.515 31.7375 175.381 32.9606 172.188 32.6259C171.795 32.5808 171.612 32.362 171.638 31.9693C171.84 28.5897 171.454 25.5288 168.364 23.5784" stroke="#F1AF9B" stroke-width="2"/>
<path d="M168.364 23.5784C161.537 21.7341 162.493 26.8034 162.445 31.0906C162.445 31.4639 162.255 31.6538 161.875 31.6603L160.176 31.6796" stroke="#E8A68F" stroke-width="2"/>
<path d="M160.176 31.6795C159.5 31.3834 159.159 30.8201 159.153 29.9897C159.147 29.5157 158.979 29.0579 158.677 28.6925C158.375 28.3271 157.956 28.0762 157.492 27.9814C146.793 25.7702 139.542 21.3478 131.209 14.6563C120.578 6.12055 108.614 -1.15025 95.434 8.16762C95.362 8.21939 95.2764 8.24845 95.1879 8.25118C95.0994 8.25392 95.0118 8.23025 94.9359 8.18306C94.86 8.13587 94.7991 8.06722 94.7606 7.98557C94.7222 7.90392 94.7078 7.81278 94.7194 7.72343L95.5595 2.15206C95.5843 1.98804 95.5677 1.82053 95.5113 1.66449C95.4548 1.50845 95.3602 1.36871 95.2359 1.25779C95.1116 1.14686 94.9614 1.06817 94.7989 1.02877C94.6363 0.989359 94.4664 0.990459 94.3042 1.03195C90.6479 1.99109 87.2587 3.56501 84.1367 5.75366C84.0167 5.83633 83.8807 5.89272 83.7376 5.91903C83.5944 5.94534 83.4476 5.94097 83.3069 5.90624C83.1661 5.87151 83.0347 5.80718 82.9213 5.71759C82.808 5.628 82.7154 5.51521 82.6497 5.38673C81.9866 4.10573 81.05 3.11438 79.8398 2.41272C79.5308 2.23248 79.1993 2.17133 78.8453 2.22926C77.4227 2.46744 76.2607 2.97599 75.3595 3.7549C69.875 8.50556 64.7285 13.6618 57.448 15.2936C51.471 16.6358 41.8442 15.8536 36.9487 22.3327C35.0658 24.8239 35.2203 27.9331 35.1334 30.994C35.1205 31.5798 34.9467 31.6313 34.612 31.1485C32.2946 27.8462 29.6199 27.5887 26.588 30.376C26.3112 30.6271 26.1985 30.5659 26.25 30.1925C26.5011 28.197 26.3562 26.2465 25.8155 24.3411C25.6996 23.9356 25.5033 23.8937 25.2265 24.2156C19.2785 31.3223 16.6039 43.9907 24.7727 50.6629C24.806 50.6902 24.8302 50.7269 24.8421 50.7682C24.8541 50.8096 24.8532 50.8536 24.8396 50.8944C24.826 50.9352 24.8003 50.971 24.7659 50.9969C24.7316 51.0228 24.6902 51.0377 24.6472 51.0395C18.5189 51.342 13.8938 54.1068 10.7717 59.3338C6.07902 67.1936 9.91236 75.208 11.9015 83.0002C13.3981 88.9096 8.05845 93.0133 12.1815 98.6427" stroke="#EEB394" stroke-width="2"/>
<path d="M12.1814 98.6428C12.1943 99.9367 12.4775 100.683 13.0311 100.883C13.1433 100.924 13.24 100.999 13.3079 101.097C13.3759 101.196 13.4118 101.312 13.4107 101.432C13.4097 101.551 13.3717 101.668 13.302 101.765C13.2323 101.862 13.1343 101.935 13.0215 101.974C8.3384 103.587 2.88286 107.826 1.64691 112.895C-2.14782 128.528 11.38 138.801 25.8154 134.765" stroke="#F4D6C2" stroke-width="2"/>
<path d="M25.8157 134.765C33.859 154.347 52.3692 166.678 72.8395 170.057C78.4142 170.978 82.0898 171.76 83.8665 172.404" stroke="#F5E0CD" stroke-width="2"/>
<path d="M83.8663 172.403L83.3932 177.144" stroke="#F4C9B4" stroke-width="2"/>
<path d="M83.3933 177.145C83.477 178.039 83.2292 178.876 82.6498 179.655C81.4911 181.2 74.6838 182.137 72.4436 182.716" stroke="#F4D6C2" stroke-width="2"/>
<path d="M72.4428 182.716L65.2782 185.091" stroke="#B79FB2" stroke-width="2"/>
<path d="M65.2784 185.091C50.6691 190.411 44.8756 202.21 38.4352 215.429" stroke="#C4ACBD" stroke-width="2"/>
<path d="M113.857 182.986C111.308 195.877 98.8231 200.627 87.1395 198.59" stroke="#BF7C80" stroke-width="2"/>
<path d="M87.1397 198.59L87.41 197.422C87.4873 197.093 87.6933 196.913 88.028 196.881C94.2946 196.302 94.9029 190.981 93.9084 185.951C92.9106 180.942 89.4055 178.007 83.3932 177.145" stroke="#FDB290" stroke-width="2"/>
<path d="M56.8395 224.4L55.6035 195.655C55.5993 195.551 55.5643 195.451 55.5031 195.368C55.4419 195.284 55.3573 195.221 55.2599 195.186C55.1626 195.151 55.057 195.145 54.9565 195.17C54.8561 195.195 54.7653 195.25 54.6959 195.326C52.5909 197.586 50.0708 214.348 49.3176 218.288C49.1052 219.427 48.5451 219.843 47.512 220.171" stroke="#8F5F89" stroke-width="2"/>
<path d="M87.1396 198.59C79.7625 196.958 71.3716 191.232 72.4434 182.716" stroke="#C0898E" stroke-width="2"/>
<path d="M178.841 36.2949C176.324 39.1852 173.392 41.8052 170.044 44.1548C169.868 44.2788 169.719 44.437 169.606 44.6197C169.493 44.8024 169.418 45.006 169.385 45.218C169.353 45.4301 169.364 45.6462 169.417 45.8534C169.471 46.0607 169.566 46.2548 169.697 46.4239C172.777 50.3924 179.217 56.7653 176.62 62.0566C176.453 62.3978 176.552 62.6231 176.919 62.7326L180.164 63.7078C180.44 63.7915 180.685 63.9331 180.897 64.1327C185.465 68.6516 175.809 69.1634 173.704 69.5592C173.382 69.6172 173.134 69.7813 172.96 70.0516C172.13 71.3391 171.412 72.6941 170.807 74.1168C169.552 77.0521 171.638 77.6508 172.97 79.3213C173.974 80.5636 175.027 81.8157 176.127 83.0774C176.22 83.1854 176.35 83.2549 176.493 83.2728C176.635 83.2906 176.78 83.2554 176.9 83.1739C181.216 80.171 187.531 80.0648 190.351 85.0472C193.856 91.2655 188.361 98.2273 182.182 99.9268C174.64 102.003 169.784 98.9515 163.382 101.076" stroke="#E8A68F" stroke-width="2"/>
<path d="M163.381 101.075C159.268 103.557 159.229 107.612 157.849 111.523C157.643 112.122 157.546 112.102 157.559 111.465C157.762 99.7041 158.418 84.0038 152.663 73.3824C152.29 72.6936 151.772 72.552 151.109 72.9575C149.203 74.1162 147.153 74.6956 144.958 74.6956C144.662 74.6956 144.379 74.628 144.108 74.4928L138.662 71.7892C138.308 71.609 137.945 71.5864 137.571 71.7216C134.018 73.009 130.433 72.9221 126.815 71.4609C120.336 68.8441 113.142 65.4549 110.892 58.3579" stroke="#F0835D" stroke-width="2"/>
<path d="M91.5999 129.193C91.13 130.996 89.791 132.496 87.5831 133.693C87.2483 133.873 87.229 134.082 87.5251 134.321L88.6549 135.248" stroke="#FEC9A9" stroke-width="2"/>
<path d="M78.7676 144.401L74.4805 142.276C74.165 142.122 74.0138 142.218 74.0266 142.566C74.0395 142.875 74.1425 143.133 74.3356 143.339C74.5287 143.544 74.7605 143.683 75.0308 143.754L77.2806 144.352" stroke="#E8A685" stroke-width="2"/>
<path d="M77.281 144.353C74.0077 144.315 77.4451 149.954 78.6618 151.933C82.331 157.888 87.8413 160.53 95.1926 159.861" stroke="#FEE8D9" stroke-width="2"/>
<path d="M89.5431 172.876L83.8655 172.403" stroke="#FDBC9B" stroke-width="2"/>
<path d="M27.8626 118.698L26.2598 115.183" stroke="#DB9B7B" stroke-width="2"/>
<path d="M113.49 227.47L113.895 226.35C113.946 226.209 113.958 226.058 113.93 225.912C113.903 225.767 113.838 225.631 113.741 225.519C105.659 216.192 97.5576 207.801 86.9652 205.416C75.3074 202.79 68.0784 196.015 65.2782 185.091" stroke="#8F5F89" stroke-width="2"/>
<path d="M100.406 61.0623C99.447 69.5465 95.031 75.1051 87.1583 77.7379" stroke="#FEC7A7" stroke-width="2"/>
<path d="M87.1584 77.7376C86.0866 77.8921 80.6697 77.2838 80.5345 77.9501C80.483 78.2076 80.3414 78.3974 80.1096 78.5197C74.403 81.3972 71.7284 75.7099 71.1877 71.0171C70.8883 68.3425 71.6608 65.5906 72.1049 62.8677C72.1318 62.7061 72.1213 62.5405 72.0743 62.3835C72.0272 62.2265 71.9447 62.082 71.8331 61.9612C71.7215 61.8403 71.5837 61.7461 71.4301 61.6856C71.2765 61.6252 71.111 61.6002 70.9463 61.6124L66.0411 61.9696C65.8991 61.9802 65.7645 62.038 65.658 62.134C65.5515 62.23 65.4792 62.3589 65.4521 62.5008C62.3622 78.6163 44.2479 82.1407 31.2319 76.0672C31.0762 75.9943 30.9055 75.9592 30.7338 75.9648C30.562 75.9704 30.394 76.0165 30.2434 76.0993C30.0928 76.1821 29.9639 76.2993 29.8672 76.4414C29.7705 76.5835 29.7087 76.7464 29.6869 76.9169C29.3683 79.3115 28.3641 81.9766 27.9392 83.985C25.8342 93.8275 25.2742 104.227 26.2591 115.183" stroke="#FEC9A9" stroke-width="2"/>
<path d="M26.2594 115.182C22.5998 111.851 20.2824 108.79 15.9469 106.811C15.8202 106.743 15.6717 106.728 15.534 106.77C15.3964 106.811 15.281 106.906 15.2131 107.033C15.1453 107.16 15.1305 107.308 15.1722 107.446C15.2138 107.583 15.3084 107.699 15.4352 107.767L17.9457 109.35" stroke="#DB9171" stroke-width="2"/>
<path d="M17.946 109.351C17.8108 110.04 17.8301 110.683 18.0039 111.282C18.0456 111.424 18.0516 111.574 18.0213 111.719C17.9909 111.864 17.9253 111.999 17.8301 112.112C17.4439 112.576 16.8903 112.795 16.1693 112.769" stroke="#FCAB89" stroke-width="2"/>
<path d="M16.1692 112.769C17.7721 110.288 9.60326 109.998 8.53147 109.785C8.29317 109.739 8.04668 109.759 7.81901 109.843C7.59134 109.928 7.39128 110.073 7.24071 110.263C7.09014 110.454 6.99487 110.682 6.96537 110.923C6.93587 111.164 6.97325 111.409 7.07343 111.63C8.21281 114.153 9.87685 115.128 12.0655 114.555" stroke="#FEC9A9" stroke-width="2"/>
<path d="M12.0655 114.555C8.15494 118.582 9.05293 128.556 15.9568 125.968C16.2465 125.859 16.5458 125.827 16.8548 125.872L20.6979 126.432C20.9202 126.464 21.1468 126.45 21.3637 126.391C21.5806 126.331 21.7831 126.228 21.9587 126.087C22.1343 125.946 22.2792 125.77 22.3846 125.57C22.4899 125.37 22.5534 125.151 22.5711 124.926L23.0539 118.34C23.0724 118.092 23.1824 117.858 23.3629 117.684C23.9744 117.072 24.7629 116.84 25.7285 116.988" stroke="#FCAB89" stroke-width="2"/>
<path d="M25.7289 116.989C25.7482 117.916 26.5689 120.552 27.8628 118.698" stroke="#DB9171" stroke-width="2"/>
<path d="M27.8627 118.697C28.5 120.236 29.5203 121.066 30.9236 121.188C30.9958 121.195 31.0658 121.217 31.1295 121.252C31.1931 121.287 31.2492 121.335 31.2942 121.393C31.3393 121.45 31.3724 121.517 31.3917 121.588C31.4109 121.659 31.416 121.733 31.4064 121.806C30.9719 124.906 32.3141 127.436 30.8464 130.545C30.8206 130.596 30.7981 130.593 30.7788 130.535C30.7402 130.445 30.7015 130.365 30.6629 130.294C30.5792 130.12 30.4633 130.088 30.3153 130.197C29.7874 130.577 29.4881 131.095 29.4173 131.752C29.3795 132.048 29.2591 132.329 29.0697 132.563C28.1685 133.657 27.0838 134.391 25.8157 134.765" stroke="#FEC9A9" stroke-width="2"/>
<path d="M160.176 31.6792C160.845 32.2714 161.289 32.8411 161.508 33.3883C161.656 33.7423 161.55 33.9805 161.19 34.1028L152.972 36.8548C152.753 36.928 152.558 37.0625 152.412 37.2424C152.266 37.4224 152.174 37.6403 152.148 37.8706C152.122 38.1009 152.162 38.3339 152.263 38.5422C152.365 38.7506 152.524 38.9256 152.721 39.0466C154.585 40.1956 159.925 42.6386 159.432 45.2263C157.433 55.896 150.626 64.2869 139.783 66.4595C129.348 68.558 119.718 65.8576 110.892 58.3582" stroke="#EB6D3C" stroke-width="2"/>
<path d="M110.893 58.3583C109.734 56.2469 108.981 53.4885 108.633 50.0833" stroke="#F78F62" stroke-width="2"/>
<path d="M108.633 50.0836C109.605 48.2233 109.985 46.5464 109.773 45.053C109.3 41.741 104.896 42.021 103.129 43.8267C102.08 44.9081 100.571 45.3813 98.6009 45.2461C98.2661 45.2203 98.0054 45.069 97.8187 44.7922C96.3961 42.7323 94.4778 41.3966 92.0639 40.7851C91.6969 40.6885 91.462 40.8237 91.359 41.1906L90.3934 44.6184C90.3097 44.9146 90.1231 45.1206 89.8334 45.2364C88.5846 45.7192 87.3615 46.2277 86.1641 46.762C85.0441 47.2641 84.5613 48.1235 84.7158 49.3402C85.0505 52.0052 85.7683 54.5511 86.869 56.9779C86.9764 57.2184 87.0213 57.4821 86.9995 57.7445C86.9778 58.0069 86.8902 58.2596 86.7448 58.4792C86.5994 58.6987 86.4009 58.878 86.1677 59.0005C85.9346 59.1229 85.6743 59.1844 85.411 59.1794C83.8789 59.1473 82.7267 59.8424 81.9542 61.2651" stroke="#EB6D3C" stroke-width="2"/>
<path d="M81.954 61.2646C79.9907 59.2176 79.0734 57.0129 79.2021 54.6504C79.2214 54.2706 79.0508 54.1419 78.6903 54.2642L78.1786 54.438" stroke="#F79C70" stroke-width="2"/>
<path d="M78.1787 54.4377L80.332 49.8802C80.4079 49.7249 80.4309 49.549 80.3975 49.3794C80.3641 49.2098 80.2762 49.0558 80.147 48.9409C80.0179 48.826 79.8547 48.7564 79.6824 48.743C79.51 48.7295 79.338 48.7729 79.1926 48.8663C74.3067 51.9659 67.2387 49.3877 62.0728 47.6014C61.7639 47.4919 61.4774 47.5338 61.2135 47.7269C59.8101 48.7633 59.1117 50.1055 59.1182 51.7534C59.131 56.0148 58.2073 59.9833 56.3469 63.659C56.2525 63.847 56.1057 64.0037 55.9243 64.1103C55.7428 64.2168 55.5345 64.2686 55.3243 64.2594C55.114 64.2502 54.911 64.1805 54.7395 64.0585C54.568 63.9366 54.4355 63.7677 54.3578 63.5721L53.5854 61.612C53.4996 61.3974 53.3592 61.209 53.178 61.0656C52.9968 60.9222 52.7812 60.8287 52.5526 60.7945C52.3241 60.7604 52.0906 60.7866 51.8753 60.8708C51.6601 60.9549 51.4707 61.0939 51.3259 61.274C49.5042 63.5271 47.1128 65.2361 44.1516 66.4013C38.6189 68.5738 37.6339 63.2631 32.9315 64.2287C23.2178 66.2371 24.6565 77.9593 23.5654 85.3846C23.0537 88.88 19.6645 91.3133 16.7774 93.8721C15.6444 94.8763 15.5028 96.0575 16.3525 97.4158C16.5104 97.6618 16.5973 97.9492 16.6036 98.2462L16.6325 100.593" stroke="#EB6D3C" stroke-width="2"/>
<path d="M16.6329 100.593C15.2167 100.329 13.7329 99.6792 12.1815 98.6428" stroke="#F79C70" stroke-width="2"/>
<path d="M144.514 214.783C138.093 199.382 129.963 187.92 113.857 182.986" stroke="#B79FB2" stroke-width="2"/>
<path d="M113.857 182.986L103.979 180.514C103.58 180.413 103.224 180.188 102.962 179.872C102.7 179.556 102.546 179.166 102.521 178.757L102.115 172.674" stroke="#F4C9B4" stroke-width="2"/>
<path d="M102.115 172.673C102.527 172.345 102.827 172.164 103.013 172.132C113.545 170.227 123.358 166.825 132.454 161.926" stroke="#F5DDCB" stroke-width="2"/>
<path d="M132.454 161.927C144.234 154.83 150.993 145.203 158.032 133.423C158.206 133.127 158.454 133.04 158.776 133.162C177.885 140.5 192.368 110.635 172.757 102.244C169.832 100.989 166.935 101.645 163.893 102.225C163.494 102.296 163.324 101.913 163.382 101.076" stroke="#F4C9B4" stroke-width="2"/>
<path d="M142.815 109.852C141.817 110.342 140.881 110.605 140.005 110.644" stroke="#E8A383" stroke-width="2"/>
<path d="M140.005 110.645L139.03 111.185" stroke="#FDB291" stroke-width="2"/>
<path d="M139.03 111.185C135.39 106.261 129.529 102.089 123.252 102.814C106.702 104.725 108.18 135.653 127.482 128.363" stroke="#A67365" stroke-width="2"/>
<path d="M127.482 128.363C127.282 129.193 127.694 129.724 128.718 129.956" stroke="#FEE6D7" stroke-width="2"/>
<path d="M102.116 172.674L89.5441 172.877" stroke="#FDBA99" stroke-width="2"/>
<path d="M89.5433 172.876C90.3994 172.014 90.3479 170.649 89.3888 168.782C89.2472 168.492 89.1828 168.187 89.1957 167.865C89.215 167.343 88.7902 161.588 89.1571 161.54C89.3888 161.502 89.3888 161.45 89.1571 161.386C89.0541 161.354 88.9672 161.325 88.8964 161.299C88.8028 161.257 88.7251 161.185 88.6756 161.095C88.6262 161.004 88.6078 160.901 88.6233 160.8C88.6388 160.699 88.6874 160.607 88.7613 160.538C88.8352 160.469 88.9303 160.428 89.0315 160.42L95.192 159.86" stroke="#FED1B1" stroke-width="2"/>
<path d="M95.1919 159.86C102.53 158.019 106.801 153.349 108.005 145.849C108.033 145.676 108.015 145.497 107.951 145.333C107.888 145.169 107.782 145.024 107.645 144.914C107.507 144.804 107.343 144.733 107.169 144.707C106.995 144.681 106.817 144.702 106.653 144.768C97.1327 148.579 87.7118 148.653 78.3907 144.99" stroke="#FEE6D7" stroke-width="2"/>
<path d="M78.3907 144.99C78.6096 144.919 78.7351 144.723 78.7673 144.401" stroke="#E8A383" stroke-width="2"/>
<path d="M78.7679 144.402L85.1312 145.773C85.4595 145.844 85.7362 145.754 85.9615 145.503L88.6652 142.519C88.8969 142.261 88.9935 141.959 88.9549 141.611C88.8454 140.588 89.1351 139.764 89.8239 139.139C90.0685 138.914 90.2262 138.644 90.297 138.328C90.5609 137.221 90.0138 136.194 88.6555 135.248" stroke="#FED1B1" stroke-width="2"/>
<path d="M88.6556 135.247C94.536 136.039 98.3501 130.371 93.1552 126.789C93.1099 126.758 93.0585 126.737 93.0045 126.727C92.9506 126.718 92.8954 126.72 92.843 126.734C92.7905 126.748 92.7421 126.773 92.701 126.807C92.6598 126.842 92.627 126.885 92.6048 126.934L91.6007 129.193" stroke="#FEC7A7" stroke-width="2"/>
<path d="M91.6 129.194C91.5743 127.14 91.1591 125.27 90.3544 123.584C90.2128 123.287 90.2096 122.991 90.3448 122.695C91.1237 121.034 91.5743 119.023 91.6966 116.66C92.1118 108.733 91.3586 101.723 91.2331 94.2105C91.2331 94.1977 91.2363 94.1912 91.2427 94.1912C91.3393 94.1719 91.423 94.1494 91.4938 94.1237C91.6354 94.0722 91.6934 93.9724 91.6676 93.8243C91.6097 93.451 91.4841 93.1291 91.291 92.8587C91.1172 92.5948 91.0271 92.3051 91.0207 91.9897C90.9724 88.8902 89.9585 86.4279 90.2868 83.2705C90.6731 79.5626 89.6302 77.7184 87.1583 77.7377" stroke="#FED1B1" stroke-width="2"/>
<path d="M43.2922 218.23L47.5118 220.171" stroke="#BA9FB3" stroke-width="2"/>
<path d="M47.512 220.17L56.8395 224.4" stroke="#AD92A8" stroke-width="2"/>
<path d="M56.8396 224.4C75.4818 231.14 94.3653 232.164 113.49 227.471" stroke="#BA9FB3" stroke-width="2"/>
<path d="M113.49 227.47C124.569 224.972 134.91 220.743 144.514 214.782" stroke="#AD92A8" stroke-width="2"/>
<path d="M132.455 161.927C132.796 156.622 134.144 151.927 136.5 147.839C136.712 147.473 136.816 147.054 136.8 146.631C136.785 146.208 136.65 145.798 136.412 145.448C136.175 145.099 135.843 144.823 135.455 144.653C135.068 144.483 134.64 144.426 134.222 144.488C128.621 145.328 120.723 144.17 115.982 139.796C115.743 139.576 115.578 139.286 115.509 138.965L114.649 134.668C114.591 134.379 114.649 134.118 114.823 133.886C115.898 132.476 116.889 131.82 117.797 131.916C121.498 132.316 125.139 131.662 128.718 129.956" stroke="#FDBA99" stroke-width="2"/>
<path d="M128.717 129.956L135.969 126.47" stroke="#FDD1C0" stroke-width="2"/>
<path d="M135.969 126.471C139.088 127.05 140.71 120.33 141.251 118.176C141.332 117.864 141.516 117.588 141.773 117.394C142.883 116.574 145.944 115.531 146.436 114.488C146.475 114.408 146.489 114.318 146.477 114.23C146.465 114.142 146.427 114.059 146.368 113.992C146.31 113.926 146.233 113.877 146.147 113.854C146.061 113.83 145.97 113.833 145.886 113.86L141.483 115.222C141.333 115.27 141.17 115.26 141.027 115.194C140.884 115.128 140.771 115.01 140.71 114.864L139.725 112.566" stroke="#A55F4E" stroke-width="2"/>
<path d="M139.725 112.566C139.712 112.167 139.876 112.009 140.217 112.093" stroke="#FC9E7B" stroke-width="2"/>
<path d="M140.217 112.092C142.148 111.97 143.014 111.223 142.815 109.852" stroke="#E78F6D" stroke-width="2"/>
<path d="M142.815 109.853L146.494 108.549C146.641 108.499 146.768 108.404 146.858 108.277C146.948 108.151 146.996 107.999 146.996 107.844C147.083 98.5167 145.548 89.2181 144.476 79.9292C144.46 79.7838 144.394 79.6478 144.289 79.5428C144.184 79.4379 144.046 79.37 143.897 79.3498C136.597 78.4325 127.105 79.1181 121.051 77.2835C113.204 74.9018 108.122 69.3754 105.804 60.7044C105.736 60.4493 105.57 60.2313 105.343 60.0975C105.115 59.9638 104.844 59.9251 104.588 59.9899L100.407 61.0617" stroke="#FDBA99" stroke-width="2"/>
<path d="M100.406 61.0619L92.7877 58.0686" stroke="#FDB290" stroke-width="2"/>
<path d="M78.3913 144.991L77.2809 144.353" stroke="#E8BBAB" stroke-width="2"/>
<path d="M25.7283 116.989C23.4366 114.105 20.8424 111.559 17.9457 109.351" stroke="#DA7C5B" stroke-width="2"/>
<path d="M108.633 50.0833C103.351 55.5581 97.9924 53.7428 92.0733 50.7398C91.9531 50.6777 91.818 50.6502 91.6831 50.66C91.5481 50.6699 91.4185 50.7169 91.3086 50.7958C91.1987 50.8748 91.1127 50.9826 91.0602 51.1074C91.0077 51.2321 90.9908 51.3689 91.0112 51.5027C91.2687 53.2922 92.054 54.7792 93.3672 55.9637C93.4957 56.0791 93.5837 56.2331 93.6184 56.4033C93.6532 56.5735 93.6328 56.751 93.5604 56.9099C93.29 57.4893 93.0325 57.8755 92.7879 58.0686" stroke="#F0835D" stroke-width="2"/>
<path d="M92.7882 58.0686C92.3955 58.7381 92.2861 59.2016 92.4599 59.459C100.011 70.7177 80.4094 78.2976 77.4451 69.6556C77.3292 69.3209 77.3389 68.9925 77.4741 68.6707C78.9804 65.2042 81.3847 65.5422 84.5904 65.3201C84.7141 65.3106 84.8315 65.2615 84.9252 65.1803C85.019 65.099 85.0842 64.9898 85.1112 64.8687C85.1383 64.7476 85.1257 64.621 85.0754 64.5076C85.0251 64.3942 84.9397 64.2999 84.8318 64.2387C83.5186 63.5113 82.5595 62.5199 81.9544 61.2647" stroke="#F1906B" stroke-width="2"/>
<path d="M78.1784 54.438C73.7464 55.6354 68.9088 54.0808 64.5734 53.4242C64.2322 53.3727 64.0358 53.5175 63.9843 53.8587C62.2077 66.1795 52.3008 75.5361 39.3234 73.2476C38.6089 73.1253 37.4952 72.3657 35.9824 70.9688C35.7443 70.7499 35.4675 70.6566 35.1521 70.6888C29.3199 71.3551 27.5046 74.4353 26.4135 80.0936C25.2452 86.1188 22.9857 92.4434 22.8988 98.0727C22.8409 101.362 23.1177 104.632 23.7292 107.883C23.7485 107.954 23.7324 108.021 23.6809 108.086C23.6294 108.15 23.5619 108.186 23.4782 108.192C23.3816 108.205 23.3269 108.166 23.314 108.076C22.754 104.246 20.5267 101.752 16.6322 100.593" stroke="#F1906B" stroke-width="2"/>
<path d="M12.0654 114.555C13.3014 113.41 14.6693 112.814 16.1692 112.769" stroke="#FDB593" stroke-width="2"/>
<path d="M139.03 111.186C139.146 111.681 139.378 112.142 139.725 112.567" stroke="#A55747" stroke-width="2"/>
<path d="M135.969 126.47C138.924 118.426 135.998 108.944 126.052 108.655" stroke="#A68B8C" stroke-width="2"/>
<path d="M126.053 108.656C125.328 108.491 125.464 106.879 126.535 106.995" stroke="#642423" stroke-width="2"/>
<path d="M126.535 106.995C131.852 107.992 135.579 110.989 137.717 115.984C137.773 116.116 137.876 116.223 138.005 116.287C138.134 116.351 138.281 116.367 138.42 116.331C138.558 116.296 138.679 116.212 138.759 116.095C138.839 115.978 138.873 115.836 138.856 115.694C138.19 109.36 133.352 104.822 126.796 106.164" stroke="#532A32" stroke-width="2"/>
<path d="M126.796 106.164C122.361 106.724 119.023 108.652 116.783 111.948C116.689 112.083 116.651 112.248 116.675 112.409C116.7 112.571 116.786 112.717 116.915 112.818C117.045 112.92 117.209 112.969 117.374 112.956C117.539 112.943 117.694 112.869 117.806 112.749C119.171 111.249 120.532 110.519 121.891 110.557" stroke="#642423" stroke-width="2"/>
<path d="M121.891 110.558L120.694 112.112C120.436 112.441 120.459 112.747 120.762 113.03L122.876 115.029C123.013 115.156 123.189 115.232 123.376 115.245C123.562 115.257 123.747 115.204 123.9 115.096L126.246 113.416C126.386 113.315 126.48 113.164 126.509 112.994C126.538 112.824 126.499 112.65 126.4 112.508L125.493 111.166C125.268 110.825 125.345 110.722 125.725 110.857C133.922 113.764 133.198 123.477 127.482 128.363" stroke="#A68B8C" stroke-width="2"/>
<path d="M140.218 112.093C140.012 111.655 139.941 111.172 140.005 110.645" stroke="#E68765" stroke-width="2"/>
<path d="M126.053 108.655C124.598 109.665 123.211 110.299 121.891 110.557" stroke="#BC9695" stroke-width="2"/>
<path d="M126.536 106.994C126.4 106.537 126.487 106.26 126.796 106.164" stroke="#69363B" stroke-width="2"/>
<path d="M88.993 7.56931C86.1155 7.53068 81.4518 9.935 83.1319 13.498C83.3057 13.8649 83.5825 13.9743 83.9623 13.8263C86.6916 12.777 88.478 10.8426 89.3213 8.0231C89.4114 7.72699 89.302 7.57574 88.993 7.56931Z" stroke="#F48C3E" stroke-width="2"/>
<path d="M70.3582 20.8805C70.8372 21.2233 71.7033 20.9839 72.7661 20.2148C73.8289 19.4457 75.0014 18.21 76.0256 16.7795C77.0497 15.349 77.8416 13.8409 78.2272 12.5869C78.6127 11.3329 78.5603 10.4359 78.0814 10.093C77.6024 9.75011 76.7363 9.98951 75.6735 10.7586C74.6107 11.5277 73.4382 12.7634 72.4141 14.1939C71.3899 15.6244 70.598 17.1325 70.2124 18.3865C69.8269 19.6404 69.8793 20.5376 70.3582 20.8805Z" stroke="#F48C3E" stroke-width="2"/>
<path d="M58.1719 19.87C52.7839 20.8549 41.3611 22.7089 41.4866 30.7618C41.4995 31.3476 41.7055 31.4281 42.1046 31.0032C46.9904 25.8857 52.5425 24.1573 58.5774 21.0384C58.7067 20.9668 58.8066 20.8517 58.8594 20.7136C58.9122 20.5756 58.9146 20.4233 58.8661 20.2836C58.8176 20.144 58.7214 20.0259 58.5944 19.9503C58.4674 19.8746 58.3178 19.8462 58.1719 19.87Z" stroke="#F48C3E" stroke-width="2"/>
<path d="M168.007 114.227C162.175 112.895 156.381 118.833 160.756 123.767" stroke="#FD8A65" stroke-width="2"/>
<path d="M160.756 123.767C161.052 124.43 161.538 124.961 162.214 125.36C162.51 125.527 162.661 125.443 162.667 125.109C162.693 124.323 163.002 123.667 163.594 123.139C163.955 122.824 164.045 122.888 163.865 123.332C163.594 124.021 163.755 124.658 164.348 125.244C164.541 125.437 164.772 125.537 165.043 125.543C167.701 125.633 169.922 124.655 171.705 122.608" stroke="#FC9E7B" stroke-width="2"/>
<path d="M171.705 122.608C172.658 121.591 173.031 120.011 172.825 117.867" stroke="#FD8A65" stroke-width="2"/>
<path d="M172.825 117.867C174.37 117.017 174.106 115.437 172.033 113.126C169.652 110.48 166.88 109.862 163.72 111.272C163.581 111.334 163.467 111.442 163.398 111.578C163.329 111.714 163.308 111.87 163.34 112.019C163.371 112.168 163.453 112.302 163.572 112.398C163.69 112.494 163.838 112.546 163.99 112.547L166.945 112.576C167.312 112.576 167.582 112.737 167.756 113.059C167.936 113.387 168.02 113.776 168.007 114.227" stroke="#FDB290" stroke-width="2"/>
<path d="M172.825 117.867C171.885 115.492 170.279 114.278 168.007 114.227" stroke="#FE9773" stroke-width="2"/>
<path d="M171.705 122.608L171.338 117.577C171.327 117.417 171.269 117.265 171.17 117.139C171.072 117.013 170.939 116.92 170.788 116.872L166.433 115.462C166.276 115.412 166.108 115.401 165.944 115.432C165.781 115.462 165.627 115.532 165.497 115.636C163.459 117.278 161.644 121.314 160.756 123.766" stroke="#FD825E" stroke-width="2"/>
<path d="M113.066 88.1947C121.659 84.5641 131.026 86.0801 137.514 92.8392C137.791 93.1353 137.9 93.0806 137.843 92.675C137.701 91.7481 137.36 90.8307 136.819 89.9231C131.441 81.0011 121.505 79.1858 112.139 82.2178C109.232 83.164 109.454 87.3933 112.168 88.2333C112.47 88.3299 112.77 88.317 113.066 88.1947Z" stroke="#FEC57E" stroke-width="2"/>
<path d="M110.816 141.891C110.951 141.305 110.738 141.125 110.178 141.35C109.657 141.563 109.242 141.901 108.933 142.364C108.707 142.718 108.801 142.921 109.213 142.973C110.088 143.082 110.622 142.722 110.816 141.891Z" stroke="#E8A383" stroke-width="2"/>
<path d="M61.5225 86.9972C63.1061 87.3706 64.709 87.6377 66.3312 87.7986C66.6208 87.8244 66.8719 87.7408 67.0843 87.5476C68.4039 86.3181 68.4393 85.2077 67.1905 84.2164C59.2534 77.9497 46.5657 82.3528 41.9405 90.8402C41.6316 91.4067 41.741 91.5033 42.2688 91.1299C48.1492 86.9586 54.4545 85.3461 61.5225 86.9972Z" stroke="#FECD86" stroke-width="2"/>
<path d="M41.4187 123.632C38.6572 126.471 41.0905 128.672 41.1967 131.723C41.2096 132.129 41.0229 132.386 40.6366 132.496L36.8419 133.568C36.6242 133.632 36.4328 133.765 36.2969 133.948C36.161 134.13 36.088 134.351 36.0891 134.578C36.0902 134.804 36.1653 135.023 36.303 135.202C36.4406 135.38 36.6333 135.508 36.8516 135.566C40.0058 136.416 41.2997 138.531 40.7332 141.91C40.6688 142.284 40.8104 142.548 41.158 142.702C49.3397 146.365 57.441 146.133 65.4617 142.007C67.4766 140.977 68.8799 139.348 69.6717 137.121C69.7876 136.806 69.7618 136.503 69.5944 136.213C68.1654 133.709 65.9123 132.145 62.8354 131.521" stroke="#FEC9A9" stroke-width="2"/>
<path d="M62.8359 131.52C68.3076 128.63 70.448 123.834 69.2571 117.133C69.2149 116.901 69.1011 116.689 68.9319 116.525C68.7627 116.361 68.5466 116.254 68.3145 116.22C68.0825 116.186 67.8461 116.226 67.6392 116.334C67.4322 116.442 67.2651 116.614 67.1618 116.824L66.8624 117.403" stroke="#F9E1CD" stroke-width="2"/>
<path d="M66.862 117.404C66.7976 114.552 65.9833 112.08 64.4191 109.988" stroke="#B07D71" stroke-width="2"/>
<path d="M64.4191 109.988C64.4255 109.724 64.5414 109.614 64.7667 109.66" stroke="#BC8170" stroke-width="2"/>
<path d="M64.7671 109.659L67.7604 114.545C68.005 114.944 68.1016 114.912 68.0501 114.449C66.3989 98.9512 49.1246 99.0574 41.9793 110.451C41.7798 110.773 41.5352 110.815 41.2455 110.577L37.9528 107.95C37.5216 107.609 37.4282 107.683 37.6728 108.173C38.3487 109.55 39.324 110.619 40.5985 111.378C40.8978 111.558 41.1227 111.841 41.2314 112.173C41.3401 112.506 41.3254 112.867 41.19 113.188C41.0545 113.51 40.8075 113.771 40.4946 113.923C40.1817 114.074 39.8242 114.107 39.4881 114.014C37.7887 113.557 36.2695 112.817 34.9306 111.793C34.7246 111.633 34.628 111.681 34.6409 111.938C34.7761 114.14 37.9239 116.158 39.8068 117.307C40.0836 117.474 40.2509 117.712 40.3089 118.021L41.4193 123.631" stroke="#9C7970" stroke-width="2"/>
<path d="M64.7667 109.66C61.9021 106.538 58.3971 105.183 54.2515 105.595C54.1905 105.601 54.1309 105.619 54.0762 105.649C54.0215 105.679 53.9728 105.719 53.9329 105.768C53.3793 106.393 53.4984 106.65 54.2902 106.541" stroke="#5A272C" stroke-width="2"/>
<path d="M54.2901 106.541C53.4469 106.966 52.6519 107.661 51.9052 108.627" stroke="#4E232E" stroke-width="2"/>
<path d="M51.9056 108.626C43.4761 111.668 42.3271 119.875 45.1659 127.928" stroke="#97878A" stroke-width="2"/>
<path d="M45.166 127.929L41.4196 123.632" stroke="#9C6F65" stroke-width="2"/>
<path d="M64.4187 109.988C61.4383 107.426 58.062 106.277 54.2898 106.541" stroke="#6D2B2E" stroke-width="2"/>
<path d="M62.836 131.521C56.0963 130.932 49.1344 130.845 45.1659 127.929" stroke="#F8D7C3" stroke-width="2"/>
<path d="M66.8626 117.404C67.0267 126.644 59.2248 133.703 50.6505 126.557C44.7025 121.604 46.653 113.416 51.9057 108.626" stroke="#AA8B8B" stroke-width="2"/>
<path d="M88.4336 123.052C88.2736 122.958 88.0907 122.909 87.9049 122.912C87.7192 122.914 87.5376 122.968 87.3802 123.066C87.2227 123.165 87.0954 123.305 87.0122 123.471C86.9289 123.637 86.8929 123.823 86.908 124.008L87.4584 131.115C87.484 131.409 87.6136 131.686 87.8239 131.895C88.0342 132.103 88.3113 132.231 88.6056 132.254C88.8999 132.277 89.192 132.195 89.4295 132.021C89.667 131.848 89.8343 131.595 89.9013 131.308C90.6448 128.131 91.8615 125.061 88.4336 123.052Z" stroke="#FEE8D9" stroke-width="2"/>
<path d="M61.3102 124.965C60.7309 124.353 60.0807 123.803 59.3598 123.313C59.1023 123.146 58.8609 123.162 58.6356 123.362C56.8654 124.958 54.7829 125.805 52.3883 125.901C51.899 125.921 51.8411 126.088 52.2144 126.403C55.6777 129.294 59.0797 129.236 62.4207 126.23C62.691 125.979 62.6621 125.776 62.3338 125.621L61.9475 125.438C61.7029 125.322 61.4905 125.164 61.3102 124.965Z" stroke="#AE5F51" stroke-width="2"/>
<path d="M160.176 31.6795C160.846 32.2717 161.29 32.8415 161.509 33.3886C161.657 33.7427 161.551 33.9808 161.19 34.1031L152.973 36.8551C152.753 36.9283 152.559 37.0628 152.413 37.2428C152.267 37.4227 152.175 37.6407 152.149 37.8709C152.122 38.1012 152.162 38.3342 152.264 38.5426C152.365 38.7509 152.524 38.9259 152.722 39.0469C154.586 40.196 159.925 42.6389 159.433 45.2267C157.434 55.8964 150.627 64.2873 139.783 66.4598C129.348 68.5583 119.718 65.8579 110.893 58.3586C109.734 56.2472 108.981 53.4888 108.634 50.0835C109.606 48.2232 109.985 46.5463 109.773 45.0529C109.3 41.7409 104.897 42.0209 103.13 43.8266C102.08 44.908 100.571 45.3812 98.6011 45.246C98.2664 45.2202 98.0057 45.0689 97.819 44.7921C96.3963 42.7322 94.4781 41.3965 92.0641 40.785C91.6972 40.6884 91.4622 40.8236 91.3592 41.1905L90.3936 44.6183C90.31 44.9145 90.1233 45.1205 89.8336 45.2363C88.5848 45.7191 87.3617 46.2276 86.1644 46.7619C85.0443 47.264 84.5615 48.1234 84.716 49.3401C85.0508 52.0051 85.7685 54.551 86.8693 56.9778C86.9766 57.2183 87.0215 57.482 86.9998 57.7444C86.9781 58.0068 86.8904 58.2595 86.745 58.4791C86.5996 58.6986 86.4011 58.8779 86.168 59.0004C85.9348 59.1228 85.6745 59.1843 85.4112 59.1793C83.8792 59.1472 82.7269 59.8423 81.9545 61.265C79.9911 59.2179 79.0738 57.0132 79.2025 54.6508C79.2219 54.271 79.0513 54.1422 78.6908 54.2645L78.179 54.4383L80.3323 49.8808C80.4082 49.7255 80.4312 49.5496 80.3978 49.38C80.3644 49.2104 80.2765 49.0564 80.1473 48.9415C80.0182 48.8266 79.855 48.757 79.6827 48.7436C79.5103 48.7301 79.3383 48.7735 79.1929 48.8669C74.307 51.9664 67.239 49.3883 62.0731 47.602C61.7641 47.4925 61.4777 47.5344 61.2138 47.7275C59.8104 48.7639 59.112 50.1061 59.1185 51.754C59.1313 56.0154 58.2076 59.9839 56.3472 63.6596C56.2528 63.8476 56.106 64.0043 55.9246 64.1109C55.7431 64.2174 55.5348 64.2692 55.3245 64.26C55.1143 64.2508 54.9113 64.1811 54.7398 64.0591C54.5683 63.9372 54.4358 63.7683 54.3581 63.5727L53.5857 61.6126C53.4999 61.398 53.3595 61.2096 53.1783 61.0662C52.9971 60.9228 52.7815 60.8293 52.5529 60.7951C52.3244 60.761 52.0909 60.7872 51.8756 60.8713C51.6604 60.9555 51.471 61.0945 51.3262 61.2746C49.5045 63.5277 47.113 65.2367 44.1519 66.4019C38.6191 68.5744 37.6342 63.2637 32.9318 64.2293C23.2181 66.2377 24.6568 77.9599 23.5657 85.3852C23.054 88.8806 19.6648 91.3139 16.7777 93.8727C15.6447 94.8769 15.5031 96.0581 16.3528 97.4164C16.5107 97.6624 16.5976 97.9498 16.6039 98.2468L16.6328 100.593C15.2167 100.329 13.7329 99.6791 12.1815 98.6427C8.05845 93.0133 13.3981 88.9096 11.9015 83.0002C9.91236 75.208 6.07902 67.1936 10.7717 59.3338C13.8938 54.1068 18.5189 51.342 24.6472 51.0395C24.6902 51.0377 24.7316 51.0228 24.7659 50.9969C24.8003 50.971 24.826 50.9352 24.8396 50.8944C24.8532 50.8536 24.8541 50.8096 24.8421 50.7682C24.8302 50.7269 24.806 50.6902 24.7727 50.6629C16.6039 43.9907 19.2785 31.3223 25.2265 24.2156C25.5033 23.8937 25.6996 23.9356 25.8155 24.3411C26.3562 26.2465 26.5011 28.197 26.25 30.1925C26.1985 30.5659 26.3112 30.6271 26.588 30.376C29.6199 27.5887 32.2946 27.8462 34.612 31.1485C34.9467 31.6313 35.1205 31.5798 35.1334 30.994C35.2203 27.9331 35.0658 24.8239 36.9487 22.3327C41.8442 15.8536 51.471 16.6358 57.448 15.2936C64.7285 13.6618 69.875 8.50556 75.3595 3.7549C76.2607 2.97599 77.4227 2.46744 78.8453 2.22926C79.1993 2.17133 79.5309 2.23248 79.8398 2.41272C81.05 3.11438 81.9866 4.10573 82.6497 5.38673C82.7154 5.51521 82.808 5.628 82.9213 5.71759C83.0347 5.80718 83.1661 5.87151 83.3069 5.90624C83.4476 5.94097 83.5945 5.94534 83.7376 5.91903C83.8807 5.89272 84.0168 5.83633 84.1367 5.75366C87.2587 3.56501 90.6479 1.99109 94.3042 1.03195C94.4664 0.990459 94.6363 0.989359 94.7989 1.02877C94.9614 1.06817 95.1116 1.14686 95.2359 1.25779C95.3602 1.36871 95.4548 1.50845 95.5113 1.66449C95.5677 1.82053 95.5843 1.98804 95.5595 2.15206L94.7194 7.72343C94.7078 7.81278 94.7222 7.90392 94.7606 7.98557C94.7991 8.06722 94.86 8.13587 94.9359 8.18306C95.0118 8.23025 95.0994 8.25392 95.1879 8.25118C95.2764 8.24845 95.362 8.21939 95.434 8.16762C108.614 -1.15025 120.578 6.12055 131.209 14.6563C139.542 21.3478 146.793 25.7702 157.492 27.9814C157.957 28.0762 158.375 28.3271 158.677 28.6925C158.979 29.0579 159.147 29.5157 159.153 29.9897C159.159 30.8201 159.5 31.3834 160.176 31.6795ZM88.9936 7.56896C86.1161 7.53034 81.4524 9.93465 83.1325 13.4976C83.3063 13.8646 83.5831 13.974 83.9629 13.8259C86.6922 12.7766 88.4786 10.8423 89.3219 8.02275C89.412 7.72664 89.3026 7.5754 88.9936 7.56896ZM70.3586 20.8805C70.8375 21.2234 71.7036 20.9839 72.7665 20.2148C73.8293 19.4457 75.0017 18.21 76.0259 16.7795C77.05 15.349 77.842 13.8409 78.2275 12.5869C78.613 11.333 78.5606 10.4359 78.0817 10.093C77.6028 9.75013 76.7366 9.98954 75.6738 10.7586C74.611 11.5277 73.4386 12.7634 72.4144 14.1939C71.3903 15.6244 70.5983 17.1325 70.2128 18.3865C69.8272 19.6405 69.8797 20.5376 70.3586 20.8805ZM58.1722 19.8705C52.7842 20.8554 41.3614 22.7093 41.4869 30.7623C41.4998 31.348 41.7058 31.4285 42.1049 31.0037C46.9907 25.8861 52.5428 24.1577 58.5777 21.0388C58.707 20.9672 58.8069 20.8521 58.8597 20.7141C58.9125 20.576 58.9149 20.4237 58.8664 20.2841C58.8179 20.1444 58.7217 20.0263 58.5947 19.9507C58.4677 19.875 58.3181 19.8466 58.1722 19.8705Z" fill="#F17941"/>
<path d="M83.1319 13.498C81.4518 9.935 86.1155 7.53068 88.993 7.56931C89.302 7.57574 89.4114 7.72699 89.3213 8.0231C88.478 10.8426 86.6916 12.777 83.9623 13.8263C83.5825 13.9743 83.3057 13.8649 83.1319 13.498Z" fill="#F69F3A"/>
<path d="M72.4141 14.1941C70.2815 17.173 69.3611 20.1667 70.3584 20.8807C71.3557 21.5947 73.893 19.7586 76.0257 16.7797C78.1583 13.8008 79.0787 10.8072 78.0814 10.0932C77.0841 9.37919 74.5468 11.2152 72.4141 14.1941Z" fill="#F69F3A"/>
<path d="M41.4866 30.7618C41.3611 22.7089 52.7839 20.8549 58.1719 19.87C58.3178 19.8462 58.4674 19.8746 58.5944 19.9503C58.7214 20.0259 58.8176 20.144 58.8661 20.2836C58.9146 20.4233 58.9122 20.5756 58.8594 20.7136C58.8066 20.8517 58.7067 20.9668 58.5774 21.0384C52.5425 24.1573 46.9904 25.8857 42.1046 31.0032C41.7055 31.4281 41.4995 31.3476 41.4866 30.7618Z" fill="#F69F3A"/>
<path d="M168.364 23.5784C171.454 25.5288 171.84 28.5897 171.637 31.9693C171.611 32.3619 171.795 32.5808 172.188 32.6259C175.38 32.9606 177.514 31.7375 178.589 28.9566C178.666 28.7641 178.797 28.5979 178.967 28.4784C179.137 28.3588 179.337 28.2913 179.543 28.2841C179.75 28.2769 179.953 28.3304 180.129 28.4379C180.304 28.5454 180.444 28.7023 180.53 28.8891C181.515 31.0069 180.952 33.4756 178.84 36.2951C176.323 39.1854 173.391 41.8053 170.044 44.1549C169.868 44.279 169.719 44.4371 169.606 44.6199C169.493 44.8026 169.417 45.0061 169.385 45.2182C169.352 45.4302 169.363 45.6463 169.417 45.8536C169.47 46.0608 169.565 46.2549 169.696 46.424C172.777 50.3926 179.217 56.7654 176.62 62.0568C176.452 62.398 176.552 62.6233 176.919 62.7327L180.163 63.708C180.44 63.7916 180.685 63.9333 180.897 64.1328C185.464 68.6517 175.808 69.1635 173.704 69.5594C173.382 69.6173 173.134 69.7814 172.96 70.0518C172.13 71.3392 171.412 72.6943 170.807 74.1169C169.552 77.0523 171.637 77.6509 172.97 79.3214C173.974 80.5638 175.026 81.8158 176.127 83.0775C176.22 83.1855 176.35 83.2551 176.492 83.2729C176.635 83.2907 176.78 83.2555 176.9 83.1741C181.216 80.1711 187.531 80.0649 190.35 85.0473C193.855 91.2656 188.361 98.2275 182.181 99.9269C174.64 102.003 169.783 98.9517 163.381 101.076C159.268 103.557 159.229 107.613 157.849 111.524C157.643 112.122 157.546 112.103 157.559 111.466C157.762 99.7048 158.418 84.0045 152.663 73.383C152.29 72.6943 151.772 72.5526 151.109 72.9582C149.203 74.1169 147.153 74.6963 144.958 74.6963C144.662 74.6963 144.379 74.6287 144.108 74.4935L138.662 71.7899C138.308 71.6096 137.945 71.5871 137.571 71.7223C134.018 73.0097 130.433 72.9228 126.815 71.4616C120.336 68.8448 113.142 65.4556 110.892 58.3586C119.718 65.8579 129.348 68.5584 139.783 66.4598C150.626 64.2873 157.433 55.8964 159.432 45.2267C159.925 42.6389 154.585 40.196 152.721 39.0469C152.524 38.9259 152.365 38.7509 152.263 38.5426C152.162 38.3343 152.122 38.1012 152.148 37.871C152.174 37.6407 152.266 37.4228 152.412 37.2428C152.558 37.0628 152.753 36.9283 152.972 36.8551L161.19 34.1032C161.55 33.9809 161.656 33.7427 161.508 33.3887C161.289 32.8415 160.845 32.2718 160.176 31.6796L161.875 31.6603C162.255 31.6538 162.445 31.4639 162.445 31.0906C162.493 26.8034 161.537 21.7341 168.364 23.5784Z" fill="#E46037"/>
<path d="M108.633 50.0836C103.352 55.5585 97.9927 53.7432 92.0737 50.7402C91.9534 50.6781 91.8184 50.6505 91.6834 50.6604C91.5484 50.6703 91.4188 50.7172 91.3089 50.7962C91.199 50.8751 91.113 50.983 91.0605 51.1077C91.0081 51.2325 90.9911 51.3693 91.0115 51.503C91.269 53.2926 92.0544 54.7796 93.3676 55.964C93.496 56.0795 93.584 56.2335 93.6187 56.4037C93.6535 56.5739 93.6332 56.7514 93.5607 56.9103C93.2903 57.4896 93.0328 57.8759 92.7882 58.069C92.3955 58.7385 92.2861 59.2019 92.4599 59.4594C100.011 70.7181 80.4094 78.2979 77.4451 69.656C77.3292 69.3212 77.3389 68.9929 77.4741 68.6711C78.9804 65.2046 81.3847 65.5426 84.5904 65.3205C84.7141 65.311 84.8315 65.2619 84.9252 65.1807C85.019 65.0994 85.0842 64.9902 85.1112 64.8691C85.1383 64.748 85.1257 64.6214 85.0754 64.508C85.0251 64.3946 84.9397 64.3003 84.8318 64.2391C83.5186 63.5117 82.5595 62.5203 81.9544 61.2651C82.7268 59.8424 83.8791 59.1473 85.4111 59.1794C85.6744 59.1844 85.9347 59.1229 86.1679 59.0005C86.401 58.878 86.5995 58.6987 86.7449 58.4792C86.8903 58.2596 86.978 58.0069 86.9997 57.7445C87.0214 57.4821 86.9765 57.2184 86.8692 56.9779C85.7684 54.5511 85.0507 52.0052 84.7159 49.3402C84.5614 48.1235 85.0442 47.2641 86.1643 46.762C87.3616 46.2277 88.5847 45.7192 89.8335 45.2364C90.1232 45.1206 90.3099 44.9146 90.3935 44.6184L91.3591 41.1906C91.4621 40.8237 91.6971 40.6885 92.064 40.7851C94.478 41.3966 96.3963 42.7323 97.8189 44.7922C98.0056 45.069 98.2663 45.2203 98.601 45.2461C100.571 45.3813 102.08 44.9081 103.13 43.8267C104.897 42.021 109.3 41.741 109.773 45.053C109.985 46.5464 109.605 48.2233 108.633 50.0836Z" fill="#E46037"/>
<path d="M78.1787 54.4377C73.7467 55.635 68.9092 54.0804 64.5737 53.4239C64.2325 53.3724 64.0362 53.5172 63.9847 53.8584C62.208 66.1792 52.3012 75.5357 39.3237 73.2473C38.6092 73.125 37.4955 72.3653 35.9828 70.9685C35.7446 70.7496 35.4678 70.6563 35.1524 70.6885C29.3203 71.3547 27.505 74.4349 26.4139 80.0932C25.2455 86.1185 22.9861 92.443 22.8992 98.0724C22.8412 101.362 23.118 104.632 23.7295 107.883C23.7489 107.954 23.7328 108.021 23.6813 108.085C23.6298 108.15 23.5622 108.185 23.4785 108.192C23.382 108.205 23.3272 108.166 23.3144 108.076C22.7543 104.246 20.5271 101.751 16.6325 100.593L16.6036 98.2462C16.5973 97.9492 16.5104 97.6618 16.3525 97.4158C15.5028 96.0575 15.6444 94.8763 16.7774 93.8721C19.6645 91.3133 23.0537 88.88 23.5654 85.3846C24.6565 77.9593 23.2178 66.2371 32.9315 64.2287C37.6339 63.2631 38.6189 68.5738 44.1516 66.4013C47.1128 65.2361 49.5042 63.5271 51.3259 61.274C51.4707 61.0939 51.6601 60.9549 51.8754 60.8708C52.0906 60.7866 52.3241 60.7604 52.5526 60.7946C52.7812 60.8287 52.9968 60.9222 53.178 61.0656C53.3592 61.209 53.4996 61.3974 53.5854 61.612L54.3578 63.5721C54.4355 63.7677 54.568 63.9366 54.7395 64.0585C54.911 64.1805 55.114 64.2502 55.3243 64.2594C55.5345 64.2686 55.7428 64.2168 55.9243 64.1103C56.1057 64.0037 56.2525 63.847 56.3469 63.659C58.2073 59.9834 59.131 56.0149 59.1182 51.7534C59.1117 50.1055 59.8101 48.7633 61.2135 47.7269C61.4774 47.5338 61.7639 47.4919 62.0728 47.6014C67.2387 49.3877 74.3067 51.9659 79.1926 48.8663C79.338 48.7729 79.51 48.7295 79.6824 48.743C79.8547 48.7564 80.0179 48.826 80.147 48.9409C80.2762 49.0558 80.3641 49.2098 80.3975 49.3794C80.4309 49.549 80.4079 49.7249 80.332 49.8802L78.1787 54.4377Z" fill="#E46037"/>
<path d="M108.633 50.0825C108.981 53.4878 109.734 56.2462 110.893 58.3576C113.142 65.4546 120.336 68.8438 126.815 71.4605C130.433 72.9218 134.018 73.0087 137.572 71.7213C137.945 71.5861 138.309 71.6086 138.663 71.7888L144.109 74.4925C144.379 74.6276 144.662 74.6953 144.958 74.6953C147.153 74.6953 149.204 74.1159 151.109 72.9572C151.772 72.5516 152.29 72.6932 152.664 73.382C158.418 84.0034 157.762 99.7038 157.559 111.465C157.546 112.102 157.643 112.121 157.849 111.523C159.23 107.612 159.268 103.556 163.382 101.075C163.324 101.912 163.494 102.295 163.893 102.224C166.935 101.645 169.832 100.988 172.757 102.243C192.368 110.634 177.885 140.5 158.776 133.161C158.454 133.039 158.206 133.126 158.032 133.422C150.993 145.202 144.234 154.829 132.454 161.926C132.795 156.622 134.144 151.926 136.5 147.838C136.711 147.472 136.815 147.053 136.8 146.63C136.784 146.207 136.65 145.798 136.412 145.448C136.174 145.098 135.842 144.822 135.455 144.652C135.067 144.482 134.64 144.425 134.221 144.488C128.621 145.328 120.722 144.169 115.981 139.795C115.742 139.575 115.577 139.285 115.508 138.964L114.649 134.668C114.591 134.378 114.649 134.117 114.822 133.885C115.897 132.476 116.889 131.819 117.796 131.916C121.498 132.315 125.138 131.661 128.717 129.956L135.969 126.47C139.088 127.049 140.71 120.329 141.25 118.175C141.332 117.863 141.516 117.587 141.772 117.393C142.882 116.573 145.943 115.53 146.436 114.487C146.474 114.407 146.488 114.317 146.476 114.229C146.464 114.141 146.426 114.058 146.368 113.991C146.309 113.924 146.232 113.876 146.146 113.853C146.061 113.829 145.97 113.832 145.885 113.859L141.482 115.221C141.332 115.269 141.169 115.259 141.026 115.193C140.883 115.127 140.77 115.009 140.71 114.863L139.725 112.565C139.712 112.166 139.876 112.009 140.217 112.092C142.148 111.97 143.014 111.223 142.815 109.852L146.494 108.549C146.64 108.498 146.768 108.403 146.858 108.277C146.948 108.15 146.996 107.999 146.996 107.844C147.083 98.5161 145.547 89.2176 144.476 79.9287C144.459 79.7833 144.393 79.6473 144.288 79.5423C144.183 79.4374 144.045 79.3694 143.896 79.3493C136.596 78.432 127.105 79.1176 121.05 77.283C113.204 74.9012 108.121 69.3749 105.804 60.7039C105.736 60.4488 105.57 60.2308 105.342 60.097C105.115 59.9633 104.843 59.9246 104.587 59.9894L100.406 61.0612L92.7879 58.0679C93.0325 57.8748 93.29 57.4885 93.5604 56.9092C93.6328 56.7503 93.6532 56.5728 93.6184 56.4026C93.5837 56.2324 93.4957 56.0784 93.3672 55.9629C92.054 54.7785 91.2687 53.2915 91.0112 51.502C90.9908 51.3682 91.0077 51.2314 91.0602 51.1066C91.1127 50.9819 91.1987 50.874 91.3086 50.7951C91.4185 50.7162 91.5481 50.6692 91.6831 50.6593C91.818 50.6494 91.9531 50.677 92.0733 50.7391C97.9924 53.7421 103.351 55.5574 108.633 50.0825ZM168.007 114.226C162.175 112.894 156.381 118.832 160.755 123.766C161.051 124.429 161.537 124.96 162.213 125.359C162.509 125.527 162.661 125.443 162.667 125.108C162.693 124.323 163.002 123.666 163.594 123.139C163.955 122.823 164.045 122.887 163.864 123.332C163.594 124.02 163.755 124.658 164.347 125.243C164.54 125.437 164.772 125.536 165.042 125.543C167.701 125.633 169.922 124.654 171.705 122.607C172.658 121.59 173.031 120.01 172.825 117.866C174.37 117.017 174.106 115.436 172.033 113.125C169.651 110.48 166.88 109.862 163.72 111.271C163.58 111.334 163.467 111.442 163.398 111.578C163.328 111.713 163.308 111.869 163.34 112.018C163.371 112.167 163.453 112.301 163.571 112.397C163.69 112.493 163.837 112.546 163.99 112.546L166.945 112.575C167.312 112.575 167.582 112.736 167.756 113.058C167.936 113.386 168.02 113.776 168.007 114.226Z" fill="#FCA582"/>
<path d="M78.179 54.438L78.6907 54.2642C79.0512 54.1419 79.2218 54.2707 79.2025 54.6505C79.0737 57.013 79.9911 59.2177 81.9544 61.2647C82.5595 62.52 83.5186 63.5113 84.8318 64.2387C84.9397 64.3 85.0251 64.3942 85.0754 64.5076C85.1257 64.6211 85.1383 64.7476 85.1113 64.8687C85.0842 64.9898 85.019 65.0991 84.9253 65.1803C84.8315 65.2616 84.7141 65.3106 84.5904 65.3202C81.3847 65.5423 78.9804 65.2043 77.4741 68.6707C77.3389 68.9926 77.3292 69.3209 77.4451 69.6556C80.4095 78.2976 100.011 70.7178 92.4599 59.4591C92.2861 59.2016 92.3955 58.7381 92.7882 58.0686L100.407 61.0619C99.4475 69.5462 95.0316 75.1047 87.1589 77.7375C86.0871 77.892 80.6702 77.2838 80.535 77.95C80.4835 78.2075 80.3419 78.3974 80.1101 78.5197C74.4035 81.3971 71.7289 75.7098 71.1882 71.0171C70.8888 68.3424 71.6613 65.5906 72.1055 62.8676C72.1323 62.706 72.1219 62.5404 72.0748 62.3834C72.0277 62.2264 71.9452 62.082 71.8336 61.9611C71.7221 61.8402 71.5843 61.746 71.4306 61.6856C71.277 61.6252 71.1115 61.6001 70.9468 61.6123L66.0416 61.9696C65.8996 61.9801 65.765 62.0379 65.6585 62.1339C65.552 62.2299 65.4797 62.3589 65.4526 62.5007C62.3627 78.6163 44.2484 82.1406 31.2324 76.0671C31.0767 75.9942 30.9061 75.9592 30.7343 75.9647C30.5625 75.9703 30.3945 76.0164 30.2439 76.0992C30.0933 76.182 29.9644 76.2993 29.8677 76.4413C29.771 76.5834 29.7092 76.7463 29.6874 76.9168C29.3688 79.3115 28.3646 81.9765 27.9397 83.9849C25.8348 93.8274 25.2747 104.227 26.2596 115.183C22.6001 111.852 20.2826 108.791 15.9472 106.811C15.8204 106.743 15.6719 106.729 15.5343 106.77C15.3967 106.812 15.2812 106.907 15.2134 107.033C15.1455 107.16 15.1308 107.309 15.1724 107.446C15.2141 107.584 15.3087 107.699 15.4354 107.767L17.9459 109.351C17.8108 110.039 17.8301 110.683 18.0039 111.282C18.0456 111.424 18.0516 111.574 18.0212 111.719C17.9909 111.864 17.9252 111.999 17.8301 112.112C17.4438 112.576 16.8902 112.795 16.1693 112.769C17.7721 110.287 9.60332 109.998 8.53152 109.785C8.29322 109.739 8.04673 109.759 7.81906 109.843C7.59139 109.927 7.39134 110.073 7.24077 110.263C7.0902 110.454 6.99493 110.682 6.96543 110.923C6.93592 111.164 6.9733 111.408 7.07348 111.63C8.21287 114.153 9.8769 115.128 12.0656 114.555C8.15495 118.582 9.05294 128.556 15.9569 125.968C16.2465 125.859 16.5458 125.827 16.8548 125.872L20.6979 126.432C20.9202 126.464 21.1468 126.45 21.3637 126.391C21.5806 126.331 21.7831 126.228 21.9587 126.087C22.1343 125.946 22.2793 125.77 22.3846 125.57C22.4899 125.37 22.5534 125.151 22.5711 124.926L23.0539 118.34C23.0724 118.092 23.1824 117.858 23.3629 117.684C23.9744 117.072 24.763 116.84 25.7285 116.988C25.7478 117.915 26.5686 120.551 27.8625 118.698C28.4998 120.236 29.5201 121.066 30.9234 121.189C30.9956 121.196 31.0656 121.217 31.1292 121.253C31.1929 121.288 31.2489 121.335 31.294 121.393C31.339 121.451 31.3722 121.517 31.3914 121.588C31.4107 121.659 31.4157 121.734 31.4062 121.807C30.9717 124.906 32.3138 127.436 30.8461 130.545C30.8204 130.597 30.7979 130.593 30.7785 130.536C30.7399 130.445 30.7013 130.365 30.6627 130.294C30.579 130.12 30.4631 130.088 30.3151 130.198C29.7872 130.577 29.4879 131.096 29.4171 131.752C29.3792 132.049 29.2589 132.33 29.0694 132.563C28.1682 133.658 27.0836 134.391 25.8154 134.765C11.38 138.801 -2.14782 128.527 1.64691 112.894C2.88286 107.825 8.3384 103.586 13.0215 101.974C13.1343 101.934 13.2323 101.861 13.302 101.764C13.3717 101.667 13.4097 101.551 13.4107 101.431C13.4118 101.312 13.3759 101.195 13.3079 101.097C13.24 100.999 13.1433 100.924 13.0311 100.883C12.4775 100.683 12.1943 99.9363 12.1814 98.6424C13.7328 99.6788 15.2166 100.329 16.6328 100.593C20.5273 101.752 22.7545 104.246 23.3146 108.076C23.3275 108.166 23.3822 108.205 23.4787 108.192C23.5624 108.186 23.63 108.15 23.6815 108.086C23.733 108.021 23.7491 107.954 23.7298 107.883C23.1182 104.632 22.8415 101.362 22.8994 98.0727C22.9863 92.4434 25.2457 86.1188 26.4141 80.0936C27.5052 74.4353 29.3205 71.3551 35.1526 70.6888C35.4681 70.6566 35.7448 70.7499 35.983 70.9688C37.4958 72.3657 38.6094 73.1253 39.324 73.2476C52.3014 75.5361 62.2082 66.1795 63.9849 53.8587C64.0364 53.5175 64.2327 53.3727 64.5739 53.4242C68.9094 54.0808 73.7469 55.6354 78.179 54.438Z" fill="#FDBF9E"/>
<path d="M142.814 109.853C141.817 110.342 140.88 110.606 140.005 110.644L139.029 111.185C135.389 106.261 129.528 102.089 123.252 102.814C106.702 104.725 108.179 135.653 127.481 128.363C127.281 129.193 127.693 129.724 128.717 129.956C125.138 131.662 121.498 132.315 117.796 131.916C116.889 131.82 115.897 132.476 114.822 133.886C114.648 134.118 114.59 134.378 114.648 134.668L115.508 138.965C115.577 139.286 115.742 139.576 115.981 139.795C120.722 144.169 128.62 145.328 134.221 144.488C134.639 144.426 135.067 144.483 135.454 144.653C135.842 144.823 136.174 145.098 136.412 145.448C136.649 145.798 136.784 146.208 136.8 146.631C136.815 147.054 136.711 147.472 136.499 147.839C134.143 151.926 132.795 156.622 132.454 161.926C123.358 166.825 113.544 170.227 103.013 172.133C102.826 172.165 102.527 172.345 102.115 172.673L89.5432 172.876C90.3994 172.014 90.3479 170.649 89.3887 168.782C89.2471 168.492 89.1827 168.187 89.1956 167.865C89.2149 167.343 88.7901 161.588 89.157 161.54C89.3887 161.502 89.3887 161.45 89.157 161.386C89.054 161.354 88.9671 161.325 88.8963 161.299C88.8027 161.257 88.725 161.185 88.6755 161.095C88.6261 161.004 88.6077 160.9 88.6232 160.8C88.6387 160.699 88.6873 160.607 88.7612 160.538C88.8352 160.469 88.9302 160.428 89.0315 160.42L95.1919 159.86C102.53 158.019 106.801 153.349 108.005 145.849C108.033 145.676 108.015 145.498 107.951 145.333C107.888 145.169 107.782 145.025 107.645 144.915C107.507 144.805 107.343 144.733 107.169 144.707C106.995 144.682 106.817 144.703 106.653 144.768C97.1327 148.579 87.7118 148.653 78.3907 144.99C78.6096 144.919 78.7351 144.723 78.7673 144.401L85.1305 145.772C85.4588 145.843 85.7356 145.753 85.9609 145.502L88.6645 142.518C88.8963 142.261 88.9928 141.958 88.9542 141.611C88.8448 140.587 89.1345 139.763 89.8232 139.139C90.0679 138.913 90.2256 138.643 90.2964 138.328C90.5603 137.22 90.0131 136.194 88.6549 135.247C94.5353 136.039 98.3493 130.371 93.1545 126.789C93.1091 126.758 93.0577 126.737 93.0038 126.727C92.9498 126.718 92.8947 126.72 92.8422 126.734C92.7898 126.748 92.7413 126.773 92.7002 126.807C92.6591 126.842 92.6262 126.885 92.6041 126.934L91.5999 129.193C91.5742 127.14 91.1589 125.27 90.3543 123.583C90.2127 123.287 90.2095 122.991 90.3447 122.695C91.1236 121.034 91.5742 119.022 91.6965 116.66C92.1117 108.733 91.3585 101.722 91.233 94.2102C91.233 94.1973 91.2362 94.1908 91.2426 94.1908C91.3392 94.1715 91.4229 94.149 91.4937 94.1233C91.6353 94.0718 91.6933 93.972 91.6675 93.824C91.6096 93.4506 91.484 93.1287 91.2909 92.8584C91.1171 92.5945 91.027 92.3048 91.0205 91.9893C90.9723 88.8898 89.9584 86.4276 90.2867 83.2701C90.673 79.5623 89.6301 77.718 87.1582 77.7373C95.0309 75.1045 99.4469 69.546 100.406 61.0617L104.587 59.9899C104.843 59.9251 105.114 59.9638 105.342 60.0975C105.57 60.2313 105.736 60.4493 105.804 60.7044C108.121 69.3754 113.203 74.9018 121.05 77.2835C127.104 79.1181 136.596 78.4325 143.896 79.3498C144.045 79.37 144.183 79.4379 144.288 79.5428C144.393 79.6478 144.459 79.7838 144.475 79.9292C145.547 89.2181 147.082 98.5167 146.995 107.844C146.996 107.999 146.947 108.151 146.857 108.277C146.767 108.404 146.64 108.499 146.493 108.549L142.814 109.853ZM113.065 88.1946C121.658 84.564 131.025 86.08 137.513 92.8391C137.79 93.1352 137.9 93.0805 137.842 92.6749C137.7 91.748 137.359 90.8306 136.818 89.923C131.44 81.001 121.504 79.1857 112.138 82.2176C109.231 83.1639 109.454 87.3931 112.167 88.2332C112.469 88.3298 112.769 88.3169 113.065 88.1946ZM110.815 141.891C110.95 141.305 110.738 141.125 110.178 141.35C109.656 141.562 109.241 141.9 108.932 142.364C108.707 142.718 108.8 142.921 109.212 142.972C110.088 143.081 110.622 142.721 110.815 141.891Z" fill="#FECEAF"/>
<path d="M87.1584 77.7376C89.6303 77.7183 90.6731 79.5625 90.2869 83.2704C89.9586 86.4278 90.9724 88.8901 91.0207 91.9896C91.0271 92.305 91.1172 92.5947 91.2911 92.8587C91.4842 93.129 91.6097 93.4509 91.6676 93.8242C91.6934 93.9723 91.6355 94.0721 91.4938 94.1236C91.423 94.1493 91.3393 94.1718 91.2428 94.1911C91.2363 94.1911 91.2331 94.1976 91.2331 94.2104C91.3586 101.723 92.1118 108.733 91.6966 116.66C91.5743 119.023 91.1237 121.034 90.3448 122.695C90.2096 122.991 90.2128 123.287 90.3544 123.583C91.1591 125.27 91.5743 127.14 91.6 129.193C91.1301 130.996 89.7912 132.496 87.5832 133.693C87.2485 133.873 87.2292 134.083 87.5253 134.321L88.655 135.248C90.0133 136.194 90.5604 137.221 90.2965 138.328C90.2257 138.643 90.068 138.914 89.8234 139.139C89.1346 139.763 88.8449 140.587 88.9544 141.611C88.993 141.959 88.8964 142.261 88.6647 142.519L85.9611 145.502C85.7357 145.753 85.459 145.843 85.1307 145.773L78.7675 144.401L74.4803 142.277C74.1649 142.123 74.0136 142.219 74.0265 142.567C74.0393 142.876 74.1423 143.133 74.3354 143.339C74.5285 143.545 74.7603 143.684 75.0307 143.754L77.2805 144.353C74.0072 144.315 77.4446 149.954 78.6613 151.933C82.3305 157.887 87.8407 160.53 95.192 159.86L89.0316 160.42C88.9304 160.428 88.8353 160.47 88.7613 160.538C88.6874 160.607 88.6388 160.699 88.6233 160.8C88.6078 160.901 88.6262 161.005 88.6757 161.095C88.7251 161.185 88.8028 161.257 88.8964 161.299C88.9672 161.325 89.0541 161.354 89.1571 161.386C89.3889 161.45 89.3889 161.502 89.1571 161.54C88.7902 161.589 89.2151 167.344 89.1958 167.865C89.1829 168.187 89.2472 168.493 89.3889 168.782C90.348 170.649 90.3995 172.014 89.5434 172.876L83.8657 172.403C82.0891 171.76 78.4134 170.977 72.8388 170.057C52.3684 166.677 33.8582 154.347 25.8149 134.765C27.0831 134.392 28.1677 133.658 29.0689 132.563C29.2583 132.33 29.3787 132.049 29.4166 131.752C29.4874 131.096 29.7867 130.578 30.3145 130.198C30.4626 130.088 30.5785 130.12 30.6622 130.294C30.7008 130.365 30.7394 130.446 30.778 130.536C30.7973 130.594 30.8199 130.597 30.8456 130.545C32.3133 127.436 30.9711 124.906 31.4057 121.807C31.4152 121.734 31.4102 121.659 31.3909 121.588C31.3716 121.517 31.3385 121.451 31.2935 121.393C31.2484 121.335 31.1924 121.288 31.1287 121.253C31.0651 121.217 30.9951 121.196 30.9229 121.189C29.5195 121.067 28.4992 120.236 27.862 118.698L26.2591 115.183C25.2742 104.227 25.8342 93.8275 27.9392 83.985C28.3641 81.9766 29.3683 79.3115 29.6869 76.9169C29.7087 76.7464 29.7705 76.5835 29.8672 76.4414C29.9639 76.2993 30.0928 76.1821 30.2434 76.0993C30.394 76.0165 30.562 75.9704 30.7338 75.9648C30.9055 75.9592 31.0762 75.9943 31.2319 76.0672C44.2479 82.1407 62.3622 78.6163 65.4521 62.5008C65.4792 62.3589 65.5515 62.23 65.658 62.134C65.7645 62.038 65.8991 61.9802 66.0411 61.9696L70.9463 61.6124C71.111 61.6002 71.2765 61.6252 71.4301 61.6856C71.5837 61.7461 71.7215 61.8403 71.8331 61.9612C71.9447 62.082 72.0272 62.2265 72.0743 62.3835C72.1213 62.5405 72.1318 62.7061 72.1049 62.8677C71.6608 65.5906 70.8883 68.3425 71.1877 71.0171C71.7284 75.7099 74.403 81.3972 80.1096 78.5197C80.3414 78.3974 80.483 78.2076 80.5345 77.9501C80.6697 77.2838 86.0866 77.8921 87.1584 77.7376ZM61.5222 86.9976C63.1057 87.3709 64.7086 87.638 66.3308 87.799C66.6204 87.8247 66.8715 87.7411 67.0839 87.548C68.4036 86.3185 68.4389 85.208 67.1901 84.2167C59.253 77.9501 46.5653 82.3531 41.9402 90.8406C41.6312 91.4071 41.7406 91.5036 42.2685 91.1302C48.1488 86.9589 54.4541 85.3464 61.5222 86.9976ZM41.4187 123.632C38.6572 126.471 41.0905 128.672 41.1967 131.723C41.2095 132.129 41.0229 132.386 40.6366 132.496L36.8419 133.568C36.6242 133.632 36.4328 133.765 36.2969 133.948C36.161 134.13 36.088 134.351 36.0891 134.578C36.0902 134.804 36.1653 135.023 36.303 135.202C36.4406 135.38 36.6333 135.508 36.8516 135.566C40.0058 136.416 41.2997 138.531 40.7332 141.91C40.6688 142.284 40.8104 142.548 41.158 142.702C49.3397 146.365 57.441 146.133 65.4617 142.007C67.4766 140.977 68.8799 139.348 69.6717 137.121C69.7876 136.806 69.7618 136.503 69.5944 136.213C68.1654 133.709 65.9123 132.145 62.8353 131.521C68.307 128.63 70.4474 123.834 69.2565 117.133C69.2143 116.902 69.1005 116.689 68.9313 116.525C68.7621 116.361 68.546 116.255 68.3139 116.221C68.0819 116.186 67.8455 116.226 67.6386 116.335C67.4316 116.443 67.2645 116.614 67.1612 116.824L66.8618 117.404C66.7975 114.552 65.9832 112.08 64.4189 109.988C64.4254 109.724 64.5412 109.615 64.7665 109.66L67.7598 114.546C68.0044 114.945 68.101 114.913 68.0495 114.449C66.3984 98.9515 49.1241 99.0577 41.9788 110.452C41.7792 110.773 41.5346 110.815 41.2449 110.577L37.9523 107.951C37.521 107.609 37.4277 107.684 37.6723 108.173C38.3482 109.55 39.3234 110.619 40.598 111.379C40.8973 111.558 41.1221 111.841 41.2309 112.174C41.3396 112.507 41.3249 112.867 41.1894 113.189C41.054 113.51 40.8069 113.771 40.4941 113.923C40.1812 114.075 39.8236 114.107 39.4876 114.015C37.7881 113.558 36.269 112.817 34.93 111.794C34.724 111.633 34.6275 111.681 34.6404 111.939C34.7755 114.14 37.9233 116.158 39.8062 117.307C40.083 117.475 40.2504 117.713 40.3083 118.022L41.4187 123.632ZM88.4329 123.052C88.2729 122.958 88.09 122.909 87.9042 122.912C87.7185 122.914 87.5369 122.968 87.3795 123.066C87.222 123.165 87.0947 123.305 87.0115 123.471C86.9282 123.637 86.8922 123.823 86.9073 124.008L87.4577 131.115C87.4833 131.409 87.6129 131.686 87.8232 131.895C88.0335 132.104 88.3106 132.231 88.6049 132.254C88.8992 132.278 89.1913 132.195 89.4288 132.022C89.6663 131.848 89.8335 131.595 89.9006 131.308C90.6441 128.131 91.8607 125.061 88.4329 123.052Z" fill="#FED3B3"/>
<path d="M137.514 92.8392C131.026 86.0801 121.659 84.5641 113.066 88.1947C112.77 88.317 112.47 88.3299 112.168 88.2333C109.454 87.3933 109.232 83.164 112.139 82.2178C121.505 79.1858 131.441 81.0011 136.819 89.9231C137.36 90.8307 137.701 91.7481 137.843 92.675C137.9 93.0806 137.791 93.1353 137.514 92.8392Z" fill="#FDBC4C"/>
<path d="M61.5225 86.9972C54.4545 85.3461 48.1492 86.9586 42.2688 91.1299C41.741 91.5033 41.6316 91.4067 41.9405 90.8402C46.5657 82.3528 59.2534 77.9497 67.1905 84.2164C68.4393 85.2077 68.4039 86.3181 67.0843 87.5476C66.8719 87.7408 66.6208 87.8244 66.3312 87.7986C64.709 87.6377 63.1061 87.3706 61.5225 86.9972Z" fill="#FEC659"/>
<path d="M64.7671 109.659C61.9025 106.537 58.3974 105.182 54.2519 105.594C54.1908 105.601 54.1312 105.619 54.0765 105.649C54.0219 105.679 53.9731 105.719 53.9332 105.768C53.3796 106.393 53.4987 106.65 54.2905 106.541C53.4472 106.966 52.6522 107.661 51.9055 108.626C43.476 111.668 42.3269 119.875 45.1657 127.928L41.4193 123.631L40.3089 118.021C40.2509 117.712 40.0836 117.474 39.8068 117.307C37.9239 116.158 34.7761 114.14 34.6409 111.938C34.628 111.681 34.7246 111.633 34.9306 111.793C36.2695 112.817 37.7887 113.557 39.4881 114.014C39.8242 114.107 40.1817 114.074 40.4946 113.923C40.8075 113.771 41.0545 113.51 41.19 113.188C41.3254 112.867 41.3401 112.506 41.2314 112.173C41.1227 111.841 40.8978 111.558 40.5985 111.378C39.324 110.619 38.3487 109.55 37.6728 108.173C37.4282 107.683 37.5216 107.609 37.9528 107.95L41.2455 110.577C41.5352 110.815 41.7798 110.773 41.9793 110.451C49.1246 99.0574 66.3989 98.9512 68.0501 114.449C68.1016 114.912 68.005 114.944 67.7604 114.545L64.7671 109.659Z" fill="#3A1F2C"/>
<path d="M139.03 111.185C139.146 111.681 139.378 112.141 139.725 112.566L140.71 114.864C140.77 115.01 140.883 115.127 141.026 115.194C141.17 115.26 141.332 115.27 141.483 115.221L145.886 113.86C145.97 113.832 146.061 113.83 146.147 113.853C146.232 113.877 146.309 113.925 146.368 113.992C146.427 114.059 146.464 114.141 146.476 114.229C146.488 114.318 146.474 114.407 146.436 114.487C145.943 115.53 142.883 116.573 141.772 117.394C141.516 117.588 141.332 117.863 141.251 118.176C140.71 120.329 139.088 127.05 135.969 126.47C138.924 118.427 135.998 108.945 126.052 108.655C125.328 108.491 125.463 106.879 126.535 106.994C131.852 107.992 135.58 110.989 137.717 115.984C137.773 116.116 137.876 116.223 138.005 116.287C138.134 116.351 138.282 116.366 138.42 116.331C138.559 116.296 138.679 116.212 138.759 116.095C138.839 115.978 138.874 115.836 138.856 115.694C138.19 109.36 133.352 104.822 126.796 106.164C122.361 106.724 119.023 108.652 116.783 111.948C116.689 112.083 116.651 112.248 116.676 112.409C116.7 112.571 116.786 112.717 116.915 112.819C117.045 112.92 117.209 112.969 117.374 112.956C117.539 112.944 117.694 112.87 117.806 112.749C119.171 111.25 120.533 110.519 121.891 110.557L120.694 112.112C120.436 112.44 120.459 112.746 120.761 113.029L122.876 115.028C123.012 115.156 123.189 115.232 123.375 115.244C123.562 115.257 123.747 115.204 123.899 115.096L126.246 113.416C126.385 113.315 126.48 113.163 126.509 112.993C126.537 112.824 126.498 112.649 126.4 112.508L125.492 111.166C125.267 110.825 125.344 110.722 125.724 110.857C133.922 113.763 133.198 123.477 127.482 128.363C108.18 135.653 106.702 104.725 123.252 102.814C129.529 102.089 135.39 106.261 139.03 111.185Z" fill="#4E181A"/>
<path d="M64.7667 109.66C64.5414 109.615 64.4255 109.724 64.4191 109.988C61.4387 107.426 58.0624 106.277 54.2902 106.541C53.4984 106.65 53.3793 106.393 53.9329 105.768C53.9728 105.719 54.0215 105.679 54.0762 105.649C54.1309 105.619 54.1905 105.601 54.2515 105.595C58.3971 105.183 61.9021 106.538 64.7667 109.66Z" fill="#792F2C"/>
<path d="M126.536 106.995C126.4 106.538 126.487 106.261 126.796 106.164C133.353 104.822 138.19 109.36 138.856 115.694C138.874 115.836 138.839 115.978 138.759 116.095C138.679 116.212 138.559 116.296 138.42 116.331C138.282 116.367 138.134 116.351 138.005 116.287C137.876 116.223 137.774 116.116 137.717 115.984C135.58 110.989 131.853 107.992 126.536 106.995Z" fill="#583C49"/>
<path d="M126.796 106.164C126.487 106.26 126.4 106.537 126.535 106.994C125.463 106.878 125.328 108.491 126.052 108.655C124.597 109.666 123.21 110.3 121.891 110.557C120.532 110.519 119.171 111.249 117.806 112.749C117.694 112.869 117.539 112.943 117.374 112.956C117.209 112.969 117.045 112.92 116.915 112.818C116.786 112.717 116.7 112.571 116.675 112.409C116.651 112.248 116.689 112.083 116.783 111.948C119.023 108.652 122.361 106.724 126.796 106.164Z" fill="#792F2C"/>
<path d="M54.2907 106.541C58.0629 106.277 61.4392 107.426 64.4197 109.988C65.9839 112.08 66.7982 114.552 66.8626 117.404C67.0267 126.645 59.2248 133.703 50.6505 126.558C44.7025 121.604 46.653 113.416 51.9057 108.627C52.6524 107.661 53.4474 106.966 54.2907 106.541ZM61.3105 124.964C60.7311 124.353 60.081 123.803 59.36 123.313C59.1025 123.146 58.8611 123.162 58.6358 123.362C56.8656 124.958 54.7832 125.804 52.3885 125.901C51.8993 125.92 51.8413 126.088 52.2147 126.403C55.6779 129.293 59.08 129.236 62.4209 126.229C62.6913 125.978 62.6623 125.776 62.334 125.621L61.9478 125.438C61.7032 125.322 61.4907 125.164 61.3105 124.964Z" fill="#61272F"/>
<path d="M26.2594 115.182L27.8622 118.697C26.5683 120.551 25.7476 117.915 25.7283 116.988C23.4366 114.104 20.8425 111.558 17.9457 109.35L15.4352 107.767C15.3084 107.699 15.2138 107.583 15.1722 107.446C15.1305 107.308 15.1453 107.16 15.2131 107.033C15.281 106.906 15.3964 106.811 15.534 106.77C15.6717 106.728 15.8202 106.743 15.9469 106.811C20.2824 108.79 22.5998 111.851 26.2594 115.182Z" fill="#B86243"/>
<path d="M51.9056 108.626C46.6529 113.416 44.7024 121.604 50.6504 126.557C59.2247 133.703 67.0267 126.644 66.8625 117.404L67.1618 116.824C67.2652 116.614 67.4323 116.443 67.6392 116.335C67.8462 116.226 68.0825 116.186 68.3146 116.22C68.5467 116.255 68.7627 116.361 68.932 116.525C69.1012 116.689 69.215 116.902 69.2572 117.133C70.448 123.834 68.3076 128.63 62.836 131.52C56.0962 130.931 49.1344 130.845 45.1659 127.928C42.3271 119.875 43.4761 111.668 51.9056 108.626Z" fill="#F3EEE7"/>
<path d="M126.053 108.655C135.998 108.944 138.924 118.426 135.969 126.47L128.718 129.956C127.694 129.724 127.282 129.193 127.482 128.362C133.198 123.476 133.922 113.763 125.725 110.856C125.345 110.721 125.268 110.824 125.493 111.165L126.4 112.507C126.499 112.649 126.538 112.823 126.509 112.993C126.48 113.163 126.386 113.314 126.246 113.415L123.9 115.095C123.747 115.204 123.562 115.256 123.376 115.244C123.189 115.231 123.013 115.155 122.876 115.028L120.762 113.029C120.459 112.746 120.436 112.44 120.694 112.112L121.891 110.557C123.211 110.299 124.598 109.665 126.053 108.655Z" fill="#FEFDFE"/>
<path d="M17.9459 109.351C20.8427 111.559 23.4369 114.105 25.7285 116.989C24.7629 116.841 23.9744 117.072 23.3629 117.684C23.1824 117.858 23.0724 118.092 23.0539 118.34L22.5711 124.926C22.5534 125.151 22.4899 125.37 22.3846 125.57C22.2792 125.77 22.1343 125.946 21.9587 126.087C21.7831 126.228 21.5806 126.332 21.3637 126.391C21.1468 126.45 20.9202 126.464 20.6979 126.432L16.8548 125.872C16.5458 125.827 16.2465 125.859 15.9568 125.969C9.05293 128.556 8.15494 118.582 12.0655 114.555C13.3015 113.41 14.6694 112.814 16.1693 112.769C16.8902 112.795 17.4438 112.576 17.8301 112.112C17.9252 111.999 17.9909 111.864 18.0212 111.719C18.0515 111.574 18.0456 111.424 18.0039 111.282C17.8301 110.683 17.8108 110.04 17.9459 109.351Z" fill="#FB9673"/>
<path d="M16.1692 112.769C14.6694 112.814 13.3014 113.41 12.0655 114.555C9.87685 115.128 8.21281 114.153 7.07343 111.63C6.97325 111.409 6.93587 111.164 6.96537 110.923C6.99487 110.682 7.09014 110.454 7.24071 110.263C7.39128 110.073 7.59134 109.928 7.81901 109.843C8.04668 109.759 8.29317 109.739 8.53147 109.785C9.60326 109.998 17.7721 110.288 16.1692 112.769Z" fill="#FED3B3"/>
<path d="M142.815 109.852C143.015 111.223 142.149 111.97 140.218 112.092C140.012 111.655 139.941 111.172 140.005 110.644C140.881 110.605 141.817 110.342 142.815 109.852Z" fill="#D17857"/>
<path d="M140.005 110.645C139.941 111.172 140.012 111.655 140.218 112.093C139.877 112.009 139.712 112.167 139.725 112.566C139.378 112.141 139.146 111.681 139.03 111.185L140.005 110.645Z" fill="#FB9673"/>
<path d="M172.825 117.867C171.885 115.492 170.279 114.278 168.007 114.227C168.02 113.776 167.936 113.387 167.756 113.059C167.582 112.737 167.312 112.576 166.945 112.576L163.99 112.547C163.838 112.546 163.69 112.494 163.572 112.398C163.453 112.302 163.371 112.168 163.34 112.019C163.308 111.87 163.329 111.714 163.398 111.578C163.467 111.442 163.581 111.334 163.72 111.272C166.88 109.862 169.652 110.48 172.033 113.126C174.106 115.437 174.37 117.017 172.825 117.867Z" fill="#FDBF9E"/>
<path d="M168.007 114.227C170.279 114.279 171.885 115.492 172.825 117.868C173.031 120.011 172.658 121.592 171.705 122.609L171.338 117.578C171.327 117.418 171.268 117.265 171.17 117.14C171.072 117.014 170.939 116.921 170.788 116.873L166.433 115.463C166.276 115.413 166.108 115.402 165.944 115.433C165.781 115.463 165.627 115.533 165.497 115.637C163.459 117.279 161.644 121.315 160.756 123.767C156.381 118.833 162.175 112.895 168.007 114.227Z" fill="#FE6E48"/>
<path d="M171.705 122.608C169.922 124.655 167.701 125.633 165.043 125.543C164.772 125.537 164.541 125.437 164.348 125.244C163.755 124.658 163.594 124.021 163.865 123.332C164.045 122.888 163.955 122.823 163.594 123.139C163.002 123.667 162.693 124.323 162.667 125.109C162.661 125.443 162.51 125.527 162.214 125.36C161.538 124.961 161.052 124.429 160.756 123.766C161.644 121.314 163.459 117.278 165.497 115.636C165.627 115.532 165.781 115.462 165.944 115.432C166.108 115.401 166.276 115.412 166.433 115.462L170.788 116.872C170.939 116.92 171.072 117.013 171.17 117.139C171.269 117.265 171.327 117.417 171.338 117.577L171.705 122.608Z" fill="#FB9673"/>
<path d="M61.9475 125.438L62.3338 125.621C62.6621 125.776 62.691 125.979 62.4207 126.23C59.0797 129.236 55.6777 129.294 52.2144 126.403C51.8411 126.088 51.899 125.921 52.3883 125.901C54.7829 125.805 56.8654 124.958 58.6356 123.362C58.8609 123.162 59.1023 123.146 59.3598 123.313C60.0807 123.803 60.7309 124.353 61.3102 124.965C61.4905 125.164 61.7029 125.322 61.9475 125.438Z" fill="#FB9673"/>
<path d="M88.4327 123.052C91.8605 125.061 90.6438 128.131 89.9003 131.308C89.8333 131.595 89.666 131.848 89.4285 132.021C89.191 132.195 88.8989 132.277 88.6046 132.254C88.3104 132.231 88.0332 132.103 87.8229 131.895C87.6127 131.686 87.4831 131.409 87.4574 131.115L86.9071 124.008C86.8919 123.823 86.9279 123.637 87.0112 123.471C87.0945 123.305 87.2218 123.165 87.3792 123.066C87.5367 122.968 87.7182 122.914 87.904 122.912C88.0898 122.909 88.2726 122.958 88.4327 123.052Z" fill="#FEFDFE"/>
<path d="M41.4187 123.632L45.1652 127.929C49.1338 130.845 56.0956 130.932 62.8354 131.521C65.9123 132.145 68.1654 133.709 69.5944 136.213C69.7618 136.503 69.7876 136.806 69.6717 137.121C68.8799 139.348 67.4766 140.977 65.4617 142.007C57.441 146.133 49.3397 146.365 41.158 142.702C40.8104 142.548 40.6688 142.284 40.7332 141.91C41.2997 138.531 40.0058 136.416 36.8516 135.566C36.6333 135.508 36.4406 135.38 36.303 135.202C36.1653 135.023 36.0902 134.804 36.0891 134.578C36.088 134.351 36.161 134.13 36.2969 133.948C36.4328 133.765 36.6242 133.632 36.8419 133.568L40.6366 132.496C41.0229 132.386 41.2096 132.129 41.1967 131.723C41.0905 128.672 38.6572 126.471 41.4187 123.632Z" fill="#FDBF9E"/>
<path d="M88.6549 135.247L87.5251 134.32C87.229 134.082 87.2483 133.873 87.5831 133.693C89.791 132.495 91.13 130.996 91.5999 129.193L92.6041 126.934C92.6262 126.885 92.6591 126.842 92.7002 126.807C92.7413 126.773 92.7898 126.748 92.8422 126.734C92.8947 126.72 92.9498 126.718 93.0038 126.727C93.0577 126.737 93.1091 126.758 93.1545 126.789C98.3493 130.371 94.5353 136.039 88.6549 135.247Z" fill="#FDBF9E"/>
<path d="M110.816 141.891C110.622 142.722 110.088 143.082 109.213 142.973C108.801 142.921 108.707 142.718 108.933 142.364C109.242 141.901 109.657 141.563 110.178 141.35C110.738 141.125 110.951 141.305 110.816 141.891Z" fill="#D17857"/>
<path d="M78.7676 144.401C78.7354 144.722 78.6099 144.919 78.3911 144.99L77.2806 144.352L75.0308 143.754C74.7605 143.683 74.5287 143.544 74.3356 143.339C74.1425 143.133 74.0395 142.875 74.0266 142.566C74.0138 142.218 74.165 142.122 74.4805 142.276L78.7676 144.401Z" fill="#D17857"/>
<path d="M77.281 144.353L78.3914 144.991C87.7125 148.654 97.1334 148.579 106.654 144.769C106.817 144.703 106.995 144.682 107.169 144.708C107.344 144.734 107.508 144.805 107.645 144.915C107.783 145.025 107.889 145.17 107.952 145.334C108.015 145.498 108.034 145.676 108.006 145.85C106.802 153.349 102.531 158.02 95.1926 159.861C87.8413 160.53 82.331 157.888 78.6618 151.933C77.4451 149.954 74.0077 144.315 77.281 144.353Z" fill="#FEFDFE"/>
<path d="M102.116 172.673L102.521 178.757C102.546 179.165 102.7 179.556 102.963 179.872C103.225 180.188 103.581 180.413 103.979 180.514L113.857 182.986C111.308 195.876 98.8232 200.627 87.1397 198.59L87.41 197.421C87.4873 197.093 87.6933 196.913 88.028 196.881C94.2946 196.301 94.9029 190.981 93.9084 185.95C92.9106 180.942 89.4055 178.007 83.3932 177.144L83.8663 172.403L89.5439 172.876L102.116 172.673Z" fill="#FCA582"/>
<path d="M83.3931 177.145C89.4054 178.007 92.9105 180.942 93.9083 185.951C94.9028 190.981 94.2945 196.302 88.0279 196.881C87.6932 196.913 87.4872 197.093 87.4099 197.422L87.1396 198.59C79.7625 196.958 71.3716 191.232 72.4434 182.716C74.6835 182.137 81.4909 181.2 82.6496 179.655C83.2289 178.876 83.4768 178.039 83.3931 177.145Z" fill="#FDBF9E"/>
<path d="M72.4428 182.716C71.371 191.232 79.7619 196.958 87.139 198.59C98.8225 200.627 111.307 195.876 113.857 182.986C129.963 187.92 138.093 199.381 144.514 214.783C134.91 220.743 124.568 224.973 113.49 227.47L113.895 226.35C113.945 226.21 113.958 226.059 113.93 225.913C113.903 225.767 113.838 225.631 113.741 225.52C105.659 216.192 97.5576 207.801 86.9652 205.416C75.3074 202.79 68.0784 196.015 65.2782 185.091L72.4428 182.716Z" fill="#82527D"/>
<path d="M65.2784 185.091C68.0785 196.015 75.3076 202.79 86.9653 205.416C97.5578 207.801 105.659 216.192 113.741 225.52C113.838 225.631 113.903 225.767 113.931 225.912C113.958 226.058 113.946 226.209 113.895 226.35L113.49 227.47C94.3649 232.163 75.4813 231.139 56.8392 224.399L55.6032 195.654C55.599 195.551 55.564 195.451 55.5028 195.367C55.4416 195.284 55.357 195.22 55.2596 195.185C55.1623 195.15 55.0566 195.145 54.9562 195.17C54.8557 195.195 54.765 195.249 54.6956 195.326C52.5906 197.585 50.0704 214.348 49.3173 218.287C49.1049 219.427 48.5448 219.842 47.5116 220.17L43.2921 218.229L38.4352 215.429C44.8756 202.21 50.6691 190.411 65.2784 185.091Z" fill="#9C6B94"/>
<path d="M56.8395 224.4L47.512 220.171C48.5451 219.843 49.1052 219.427 49.3176 218.288C50.0708 214.348 52.5909 197.586 54.6959 195.326C54.7653 195.25 54.8561 195.195 54.9565 195.17C55.057 195.145 55.1626 195.151 55.2599 195.186C55.3573 195.221 55.4419 195.284 55.5031 195.368C55.5643 195.451 55.5993 195.551 55.6035 195.655L56.8395 224.4Z" fill="#82527D"/>
</svg>
