<svg width="162" height="132" viewBox="0 0 162 132" fill="none" xmlns="http://www.w3.org/2000/svg">
<g clip-path="url(#clip0_387_1817)">
<path d="M158.469 131.45H3.43576C1.53834 131.45 0 129.912 0 128.014V127.743C0 125.845 1.53834 124.307 3.43576 124.307H158.469C160.366 124.307 161.904 125.845 161.904 127.743V128.014C161.904 129.912 160.366 131.45 158.469 131.45Z" fill="#444463"/>
<path d="M145.966 112.678C145.966 115.436 143.731 117.671 140.973 117.671C138.216 117.671 135.98 115.436 135.98 112.678C135.98 109.921 138.216 103.131 140.973 103.131C143.731 103.131 145.966 109.921 145.966 112.678Z" fill="#67E56A"/>
<path d="M136.559 115.009C137.396 116.592 139.057 117.671 140.972 117.671C143.297 117.671 145.245 116.079 145.801 113.928C144.389 115.199 141.397 115.36 136.559 115.009Z" fill="#58CC58"/>
<path d="M140.967 103.131C138.285 103.131 136.096 109.558 135.98 112.445C138.361 112.008 144.459 110.506 144.368 106.587C143.476 104.674 142.281 103.131 140.967 103.131Z" fill="#A1F973"/>
<path d="M145.88 115.483H136.059V124.276H145.88V115.483Z" fill="#EFE5D0"/>
<path d="M144.059 117.11H137.871V122.649H144.059V117.11Z" fill="#E2D0B0"/>
<path d="M137.873 122.649L144.061 117.11H137.873C137.873 117.11 137.834 122.689 137.873 122.649Z" fill="#C4B090"/>
<path d="M157.395 112.678C157.395 115.436 155.16 117.671 152.403 117.671C149.645 117.671 147.41 115.436 147.41 112.678C147.41 109.921 149.645 103.131 152.403 103.131C155.16 103.131 157.395 109.921 157.395 112.678Z" fill="#67E56A"/>
<path d="M147.984 115.009C148.822 116.592 150.483 117.671 152.398 117.671C154.723 117.671 156.671 116.079 157.226 113.928C155.815 115.199 152.823 115.36 147.984 115.009Z" fill="#58CC58"/>
<path d="M152.397 103.131C149.714 103.131 147.526 109.558 147.41 112.445C149.791 112.008 155.889 110.506 155.798 106.587C154.906 104.674 153.711 103.131 152.397 103.131Z" fill="#A1F973"/>
<path d="M157.31 115.483H147.488V124.276H157.31V115.483Z" fill="#EFE5D0"/>
<path d="M155.493 117.11H149.305V122.649H155.493V117.11Z" fill="#E2D0B0"/>
<path d="M149.31 122.649L155.499 117.11H149.31C149.31 117.11 149.271 122.689 149.31 122.649Z" fill="#C4B090"/>
<path d="M13.954 112.678C13.954 115.436 11.7188 117.671 8.9614 117.671C6.20398 117.671 3.96875 115.436 3.96875 112.678C3.96875 109.921 6.20398 103.131 8.9614 103.131C11.7188 103.131 13.954 109.921 13.954 112.678Z" fill="#67E56A"/>
<path d="M4.54688 115.009C5.38446 116.592 7.04532 117.671 8.96052 117.671C11.2854 117.671 13.2335 116.079 13.7889 113.928C12.3777 115.199 9.38568 115.36 4.54688 115.009Z" fill="#58CC58"/>
<path d="M8.95989 103.131C6.27707 103.131 4.089 109.558 3.97266 112.445C6.3536 112.008 12.4513 110.506 12.3601 106.587C11.4688 104.674 10.2741 103.131 8.95989 103.131Z" fill="#A1F973"/>
<path d="M13.8726 115.483H4.05078V124.276H13.8726V115.483Z" fill="#EFE5D0"/>
<path d="M12.0553 117.11H5.86719V122.649H12.0553V117.11Z" fill="#E2D0B0"/>
<path d="M5.86908 122.649L12.0572 117.11H5.86908C5.86908 117.11 5.82966 122.689 5.86908 122.649Z" fill="#C4B090"/>
<path d="M25.3916 112.678C25.3916 115.436 23.1563 117.671 20.3989 117.671C17.6415 117.671 15.4062 115.436 15.4062 112.678C15.4062 109.921 17.6415 103.131 20.3989 103.131C23.1563 103.131 25.3916 109.921 25.3916 112.678Z" fill="#67E56A"/>
<path d="M15.9844 115.009C16.822 116.592 18.4832 117.671 20.398 117.671C22.7229 117.671 24.671 116.079 25.2264 113.928C23.8152 115.199 20.8232 115.36 15.9844 115.009Z" fill="#58CC58"/>
<path d="M20.397 103.131C17.7142 103.131 15.5261 109.558 15.4102 112.445C17.7911 112.008 23.8888 110.506 23.7976 106.587C22.9059 104.674 21.7112 103.131 20.397 103.131Z" fill="#A1F973"/>
<path d="M25.3101 115.483H15.4883V124.276H25.3101V115.483Z" fill="#EFE5D0"/>
<path d="M23.4928 117.11H17.3047V122.649H23.4928V117.11Z" fill="#E2D0B0"/>
<path d="M17.3027 122.649L23.4908 117.11H17.3027C17.3027 117.11 17.2633 122.689 17.3027 122.649Z" fill="#C4B090"/>
<path d="M134.417 52.6064H27.4844V124.64H134.417V52.6064Z" fill="#FFD876"/>
<path d="M42.4018 69.2319H30.4766V75.1944H42.4018V69.2319Z" fill="#FBCF33"/>
<path d="M110.64 63.7666H98.7148V69.729H110.64V63.7666Z" fill="#FFB133"/>
<path d="M81.4916 79.6675H69.5664V85.6303H81.4916V79.6675Z" fill="#FBCF33"/>
<path d="M132.171 93.2485H120.246V99.211H132.171V93.2485Z" fill="#FFB133"/>
<path d="M33.2339 80.6606H27.4922V86.6231H33.2339V80.6606Z" fill="#FFB133"/>
<path d="M134.375 80.6606H128.633V86.6231H134.375V80.6606Z" fill="#FBCF33"/>
<path d="M68.5112 105.008H62.7695V110.97H68.5112V105.008Z" fill="#FBCF33"/>
<path d="M134.417 59.1289L27.4844 60.4539V52.6064H134.417V59.1289Z" fill="#FFB133"/>
<path d="M134.417 119.197H27.4844V124.641H134.417V119.197Z" fill="#EFE5D0"/>
<path d="M134.417 123.263H27.4844V124.64H134.417V123.263Z" fill="#E2D0B0"/>
<path d="M137.952 56.8135H23.9532L21.9023 43.7964H140.003L137.952 56.8135Z" fill="#CCC2B2"/>
<path d="M117.16 23.1392H44.7486L21.9023 43.8093H140.006L117.16 23.1392Z" fill="#EFE5D0"/>
<path d="M23.9532 56.8135H38.7719V43.7964H21.9023L23.9532 56.8135Z" fill="#FF0080"/>
<path d="M72.5258 43.7964H55.6172V56.8131H72.5258V43.7964Z" fill="#FF0080"/>
<path d="M106.284 43.7964H89.375V56.8131H106.284V43.7964Z" fill="#FF0080"/>
<path d="M123.125 43.7964V56.8135H137.947L139.998 43.7964H123.125Z" fill="#FF0080"/>
<path d="M117.159 23.1392H116.178C113.683 23.1724 107.163 23.2482 106.798 23.1392H106.793L123.129 43.7668H139.958L117.159 23.1392Z" fill="#FF0080"/>
<path d="M86.1094 23.1265L89.3766 43.7677H106.285L96.4665 23.1265C96.4665 23.1265 86.4209 23.1265 86.1094 23.1265Z" fill="#FF0080"/>
<path d="M55.6172 43.7677H72.5258L75.7861 23.1265H65.4293L55.6172 43.7677Z" fill="#FF0080"/>
<path d="M21.8633 43.7677H38.7719L55.1115 23.1265C55.0133 23.1265 44.7544 23.1265 44.7544 23.1265L21.8633 43.7677Z" fill="#FF0080"/>
<path d="M27.3164 38.8476C31.4448 39.6616 36.0316 40.4756 40.824 41.1713L46.577 33.9037C43.2448 33.0019 39.8921 31.8864 36.5345 30.5352L27.3164 38.8476Z" fill="#FFAD91"/>
<path d="M59.133 36.3652L56.0664 42.817C61.8228 43.1919 67.495 43.236 72.682 42.7633L73.5807 37.0749C68.888 37.1858 64.0553 36.979 59.133 36.3652Z" fill="#FFAD91"/>
<path d="M88.1016 35.74L88.7594 39.8955C93.3168 38.7823 97.9949 37.4438 102.588 36.004L101.124 32.9277C97.0425 34.0401 92.6822 35.0138 88.1016 35.74Z" fill="#FFAD91"/>
<path d="M120.382 26.0542C117.833 27.1867 114.971 28.364 111.84 29.5097L113.968 32.1967C117.284 31.0225 120.441 29.8514 123.35 28.7393L120.382 26.0542Z" fill="#FFAD91"/>
<path d="M65.9191 66.4165H38.0938V124.64H65.9191V66.4165Z" fill="#444463"/>
<path d="M63.4394 68.7354H40.5742V95.429H63.4394V68.7354Z" fill="#9FDAFF"/>
<path d="M63.4394 97.582H40.5742V124.276H63.4394V97.582Z" fill="#9FDAFF"/>
<path d="M62.1795 95.4293L63.4411 92.1381V69.3228L46.0977 95.4293H62.1795Z" fill="#C2EBFF"/>
<path d="M61.3522 97.582H44.6655L40.5742 103.74V124.276H51.118L61.3522 97.582Z" fill="#C2EBFF"/>
<path d="M61.5492 100.039H57.781C57.4053 100.039 57.0977 99.7318 57.0977 99.3557C57.0977 98.98 57.4049 98.6724 57.781 98.6724H61.5492C61.9249 98.6724 62.2325 98.9796 62.2325 99.3557C62.2325 99.7314 61.9249 100.039 61.5492 100.039Z" fill="white"/>
<path d="M44.6758 80.4955L51.8809 74.7607L59.9757 80.2887" stroke="#444463" stroke-width="0.386518" stroke-miterlimit="10"/>
<path d="M53.494 75.0087C53.494 75.8548 52.8079 76.5409 51.9618 76.5409C51.1158 76.5409 50.4297 75.8548 50.4297 75.0087C50.4297 74.1626 51.1158 73.4766 51.9618 73.4766C52.8079 73.4766 53.494 74.1626 53.494 75.0087Z" fill="white"/>
<path d="M59.7995 80.7363H42.9883V90.8395H59.7995V80.7363Z" fill="#7BADC6"/>
<path d="M60.7018 79.8325H43.8906V89.9357H60.7018V79.8325Z" fill="#FF0080"/>
<path d="M49.5163 84.4172C49.5163 84.6542 49.476 84.8741 49.3955 85.0768C49.3165 85.2796 49.204 85.4547 49.0579 85.6023C48.9133 85.7499 48.7389 85.8661 48.5347 85.9511C48.3305 86.0346 48.1039 86.0763 47.8549 86.0763C47.606 86.0763 47.3794 86.0346 47.1752 85.9511C46.971 85.8661 46.7958 85.7499 46.6498 85.6023C46.5037 85.4547 46.3904 85.2796 46.3099 85.0768C46.2309 84.8741 46.1914 84.6542 46.1914 84.4172C46.1914 84.1802 46.2309 83.9611 46.3099 83.7598C46.3904 83.5571 46.5037 83.382 46.6498 83.2344C46.7958 83.0868 46.971 82.9713 47.1752 82.8878C47.3794 82.8028 47.606 82.7604 47.8549 82.7604C48.1039 82.7604 48.3305 82.8028 48.5347 82.8878C48.7389 82.9713 48.9133 83.0876 49.0579 83.2366C49.204 83.3842 49.3165 83.5594 49.3955 83.7621C49.476 83.9633 49.5163 84.1817 49.5163 84.4172ZM48.8298 84.4172C48.8298 84.2473 48.8075 84.0952 48.7627 83.9611C48.718 83.8254 48.6532 83.7107 48.5682 83.6167C48.4847 83.5213 48.3826 83.449 48.2619 83.3999C48.1426 83.3492 48.007 83.3238 47.8549 83.3238C47.7029 83.3238 47.5665 83.3492 47.4458 83.3999C47.325 83.449 47.2222 83.5213 47.1372 83.6167C47.0537 83.7107 46.9896 83.8254 46.9449 83.9611C46.9002 84.0952 46.8778 84.2473 46.8778 84.4172C46.8778 84.5886 46.9002 84.7422 46.9449 84.8778C46.9896 85.012 47.0537 85.126 47.1372 85.2199C47.2222 85.3138 47.325 85.3861 47.4458 85.4368C47.5665 85.486 47.7029 85.5106 47.8549 85.5106C48.007 85.5106 48.1426 85.486 48.2619 85.4368C48.3826 85.3861 48.4847 85.3138 48.5682 85.2199C48.6532 85.126 48.718 85.012 48.7627 84.8778C48.8075 84.7422 48.8298 84.5886 48.8298 84.4172ZM51.1018 84.4105C51.3119 84.4105 51.4655 84.3598 51.5624 84.2585C51.6608 84.1571 51.71 84.0185 51.71 83.8426C51.71 83.7621 51.6973 83.689 51.6719 83.6234C51.6481 83.5564 51.6108 83.4997 51.5601 83.4535C51.5109 83.4058 51.4483 83.3693 51.3723 83.344C51.2963 83.3186 51.2061 83.3059 51.1018 83.3059H50.6769V84.4105H51.1018ZM51.1018 82.7961C51.3239 82.7961 51.5154 82.8222 51.6764 82.8744C51.8389 82.9266 51.9723 82.9996 52.0766 83.0935C52.181 83.1859 52.2578 83.2963 52.307 83.4244C52.3576 83.5526 52.383 83.692 52.383 83.8426C52.383 84.0021 52.3569 84.1482 52.3047 84.2808C52.2525 84.4135 52.1735 84.5275 52.0677 84.6229C51.9619 84.7183 51.8285 84.7929 51.6675 84.8465C51.5065 84.8987 51.3179 84.9248 51.1018 84.9248H50.6769V86.0405H50.0061V82.7961H51.1018ZM53.4851 83.3216V84.1556H54.5673V84.6632H53.4851V85.5151H54.8759V86.0405H52.8098V82.7961H54.8759V83.3216H53.4851ZM58.157 82.7961V86.0405H57.8104C57.7583 86.0405 57.7143 86.0323 57.6785 86.0159C57.6427 85.998 57.6077 85.9682 57.5734 85.9265L55.9568 83.8694C55.9613 83.9216 55.9643 83.973 55.9658 84.0237C55.9687 84.0744 55.9702 84.1213 55.9702 84.1646V86.0405H55.3777V82.7961H55.731C55.7593 82.7961 55.7832 82.7976 55.8025 82.8006C55.8234 82.8021 55.842 82.8073 55.8584 82.8163C55.8748 82.8237 55.8905 82.8342 55.9054 82.8476C55.9203 82.861 55.9367 82.8789 55.9546 82.9012L57.5824 84.9673C57.5764 84.9106 57.5719 84.8562 57.5689 84.804C57.566 84.7504 57.5645 84.6997 57.5645 84.652V82.7961H58.157Z" fill="#444463"/>
<path d="M38.0179 75.9365C37.6086 75.9365 37.2734 76.2716 37.2734 76.681V81.9492C37.2734 82.3585 37.6086 82.6936 38.0179 82.6936C38.4272 82.6936 38.7623 82.3585 38.7623 81.9492V76.681C38.7623 76.2712 38.4272 75.9365 38.0179 75.9365Z" fill="#55557C"/>
<path d="M38.0179 109.12C37.6086 109.12 37.2734 109.455 37.2734 109.865V115.133C37.2734 115.542 37.6086 115.877 38.0179 115.877C38.4272 115.877 38.7623 115.542 38.7623 115.133V109.865C38.7623 109.455 38.4272 109.12 38.0179 109.12Z" fill="#55557C"/>
<path d="M129.838 110.768H75.0312V112.884H129.838V110.768Z" fill="#EFE5D0"/>
<path d="M129.838 112.884C129.838 112.884 104.927 114.697 93.1674 114.78C81.408 114.862 75.0312 112.884 75.0312 112.884H129.838Z" fill="#FFB133"/>
<path d="M128.198 66.4165H75.8594V110.805H128.198V66.4165Z" fill="#444463"/>
<path d="M125.654 68.5703H78.3945V108.651H125.654V68.5703Z" fill="#9FDAFF"/>
<path d="M125.654 96.4008C112.194 96.2744 95.5296 98.0327 78.3945 104.551V108.651H125.654V96.4008Z" fill="#7DC0E2"/>
<path d="M79.4297 108.651H100.121L119.03 68.5703H110.699L79.4297 108.651Z" fill="#C2EBFF"/>
<path d="M124.149 68.5703H120.902L105.59 108.651H111.18L124.149 68.5703Z" fill="#C2EBFF"/>
<path d="M125.656 100.189H117.195V108.649H125.656V100.189Z" fill="white"/>
<path d="M124.255 102.048H118.445V104.222H124.255V102.048Z" fill="#EFE5D0"/>
<path d="M123.964 101.332H118.51C118.451 101.332 118.402 101.283 118.402 101.224C118.402 101.165 118.451 101.117 118.51 101.117H123.964C124.023 101.117 124.071 101.165 124.071 101.224C124.071 101.283 124.023 101.332 123.964 101.332Z" fill="#444463"/>
<path d="M123.964 105.312H118.51C118.451 105.312 118.402 105.263 118.402 105.204C118.402 105.145 118.451 105.097 118.51 105.097H123.964C124.023 105.097 124.071 105.145 124.071 105.204C124.071 105.263 124.023 105.312 123.964 105.312Z" fill="#444463"/>
<path d="M123.964 106.901H118.51C118.451 106.901 118.402 106.853 118.402 106.794C118.402 106.735 118.451 106.687 118.51 106.687H123.964C124.023 106.687 124.071 106.735 124.071 106.794C124.071 106.853 124.023 106.901 123.964 106.901Z" fill="#444463"/>
<path d="M118.51 106.107H121.237C121.296 106.107 121.345 106.058 121.345 105.999C121.345 105.94 121.296 105.892 121.237 105.892H118.51C118.451 105.892 118.402 105.94 118.402 105.999C118.402 106.058 118.451 106.107 118.51 106.107Z" fill="#444463"/>
<path d="M121.237 107.48H118.51C118.451 107.48 118.402 107.529 118.402 107.588C118.402 107.647 118.451 107.695 118.51 107.695H121.237C121.296 107.695 121.345 107.647 121.345 107.588C121.345 107.529 121.296 107.48 121.237 107.48Z" fill="#444463"/>
<path d="M57.8968 13.416H55.5781V23.4643H57.8968V13.416Z" fill="#444463"/>
<path d="M82.1117 13.416H79.793V23.4643H82.1117V13.416Z" fill="#444463"/>
<path d="M106.327 13.416H104.008V23.4643H106.327V13.416Z" fill="#444463"/>
<path d="M106.861 23.8281H55.0395C54.3121 23.8281 53.7227 23.2382 53.7227 22.5112C53.7227 21.7838 54.3121 21.1943 55.0395 21.1943H106.861C107.589 21.1943 108.178 21.7838 108.178 22.5112C108.178 23.2382 107.589 23.8281 106.861 23.8281Z" fill="#55557C"/>
<path d="M109.358 16.5631H52.5471C47.9735 16.5631 44.2656 12.8552 44.2656 8.28152C44.2656 3.70786 47.9735 0 52.5471 0H109.358C113.931 0 117.639 3.70786 117.639 8.28152C117.639 12.8552 113.931 16.5631 109.358 16.5631Z" fill="#FFB133"/>
<path d="M109.358 16.5631H52.5471C47.9735 16.5631 44.2656 12.8552 44.2656 8.28152C44.2656 3.70786 47.9735 0 52.5471 0H109.358C113.931 0 117.639 3.70786 117.639 8.28152C117.639 12.8552 113.931 16.5631 109.358 16.5631Z" fill="#FFB133"/>
<path d="M109.355 0H52.5448C49.1515 0 46.2364 2.04197 44.957 4.96327C46.4185 2.61402 49.0224 1.04901 51.9928 1.04901H108.803C113.376 1.04901 117.084 4.75687 117.084 9.33053C117.084 10.511 116.836 11.6326 116.391 12.6488C117.179 11.3806 117.636 9.8848 117.636 8.28153C117.636 3.70748 113.929 0 109.355 0Z" fill="#FBCF33"/>
<path d="M52.5475 13.9548C49.4194 13.9548 46.875 11.41 46.875 8.28229C46.875 5.15421 49.4198 2.60938 52.5475 2.60938H109.358C112.486 2.60938 115.03 5.15421 115.03 8.28229C115.03 11.4104 112.486 13.9548 109.358 13.9548H52.5475Z" fill="#EFE5D0"/>
<path d="M67.2452 4.58293C79.2934 4.58293 97.4709 4.12451 112.857 3.82651C111.892 3.06662 110.679 2.60938 109.358 2.60938H52.5475C49.4194 2.60938 46.875 5.15421 46.875 8.28229C46.875 9.13959 47.0717 9.94973 47.4134 10.6791C47.0752 4.15931 51.759 4.58293 67.2452 4.58293Z" fill="#CCC2B2"/>
<path d="M64.6449 8.81211C64.4524 8.62156 64.2321 8.46502 63.9848 8.3425C63.737 8.21958 63.4842 8.1129 63.226 8.02169C62.9678 7.93047 62.715 7.84814 62.4673 7.77393C62.2199 7.69972 61.9996 7.61816 61.8071 7.52965C61.6142 7.44075 61.4589 7.33484 61.3402 7.21193C61.2215 7.0894 61.1624 6.9348 61.1624 6.7485C61.1624 6.45629 61.261 6.22476 61.4577 6.05315C61.6544 5.88192 61.954 5.79612 62.3564 5.79612C62.589 5.79612 62.7966 5.82704 62.9787 5.88811C63.1607 5.94957 63.3227 6.01836 63.4645 6.09451C63.6064 6.17065 63.7331 6.23945 63.8456 6.30091C63.9577 6.36237 64.0624 6.3929 64.1598 6.3929C64.27 6.3929 64.3597 6.36739 64.4296 6.31676C64.4996 6.26612 64.5661 6.18959 64.6295 6.08832L65.1629 5.09149C64.9978 4.93882 64.8107 4.80238 64.6009 4.68179C64.3914 4.56119 64.166 4.45761 63.9248 4.37064C63.6837 4.28367 63.4286 4.21796 63.1599 4.1739C62.8909 4.12945 62.6149 4.10742 62.3312 4.10742C61.8233 4.10742 61.3723 4.18473 60.9788 4.33895C60.5853 4.49355 60.2529 4.69995 59.982 4.95815C59.711 5.21634 59.5058 5.51048 59.3659 5.84057C59.2263 6.17065 59.1564 6.50963 59.1564 6.85633C59.1564 7.28808 59.2155 7.65102 59.3342 7.94516C59.4525 8.2393 59.6082 8.48473 59.8011 8.68186C59.9936 8.87859 60.2127 9.03707 60.4582 9.15805C60.7036 9.27864 60.9556 9.38029 61.2138 9.46262C61.472 9.54534 61.724 9.62032 61.9695 9.68796C62.2149 9.75561 62.4341 9.83407 62.6265 9.92297C62.819 10.0119 62.9748 10.124 63.0931 10.2592C63.2113 10.3949 63.2709 10.5704 63.2709 10.7861C63.2709 11.1587 63.163 11.4308 62.947 11.602C62.7309 11.7732 62.4283 11.859 62.039 11.859C61.7511 11.859 61.5014 11.8188 61.29 11.7384C61.0781 11.658 60.8911 11.5691 60.728 11.4717C60.5649 11.3743 60.4191 11.2854 60.2896 11.205C60.1606 11.1247 60.0326 11.0844 59.9054 11.0844C59.808 11.0844 59.7184 11.1088 59.6357 11.1575C59.5533 11.2062 59.4865 11.2665 59.4358 11.3384L58.8008 12.3414C58.9828 12.5235 59.1966 12.6885 59.442 12.8369C59.6875 12.985 59.9499 13.1129 60.2293 13.2211C60.5088 13.329 60.7975 13.4124 61.0959 13.472C61.3943 13.5311 61.6873 13.5609 61.9753 13.5609C62.5001 13.5609 62.969 13.4816 63.3818 13.3228C63.7946 13.1639 64.1413 12.9459 64.4231 12.6688C64.7045 12.3917 64.9194 12.0666 65.0674 11.6944C65.2154 11.3218 65.2896 10.9221 65.2896 10.4942C65.2896 10.1093 65.2301 9.77995 65.1118 9.50707C64.9932 9.23419 64.8378 9.00267 64.6449 8.81211Z" fill="#B2A89A"/>
<path d="M75.007 8.07522H71.2485V4.2085H69.0898V13.4594H71.2485V9.54823H75.007V13.4594H77.1661V4.2085H75.007V8.07522Z" fill="#B2A89A"/>
<path d="M89.2529 5.47221C88.8339 5.04898 88.3291 4.7158 87.7385 4.47229C87.1483 4.22879 86.4932 4.10742 85.7739 4.10742C85.0542 4.10742 84.3982 4.22801 83.8053 4.4692C83.2128 4.71039 82.7061 5.04279 82.2848 5.46603C81.8638 5.88927 81.5376 6.38865 81.3069 6.96417C81.0761 7.54008 80.9609 8.16199 80.9609 8.83067C80.9609 9.49973 81.0761 10.122 81.3069 10.6975C81.5376 11.2735 81.8638 11.7736 82.2848 12.1992C82.7057 12.6247 83.2128 12.9579 83.8053 13.1991C84.3982 13.4403 85.0538 13.5609 85.7739 13.5609C86.4932 13.5609 87.1483 13.4403 87.7385 13.1991C88.3291 12.9579 88.8339 12.6247 89.2529 12.1992C89.6723 11.7736 89.9969 11.2735 90.2277 10.6975C90.4585 10.122 90.5736 9.49973 90.5736 8.83067C90.5736 8.16624 90.4585 7.54627 90.2277 6.97036C89.9969 6.39522 89.6723 5.89584 89.2529 5.47221ZM88.1992 10.0722C88.0806 10.4382 87.9101 10.7482 87.6883 11.0025C87.466 11.2565 87.1939 11.4501 86.8723 11.5834C86.5508 11.7168 86.1843 11.7833 85.7739 11.7833C85.3591 11.7833 84.9896 11.7168 84.6657 11.5834C84.3422 11.4501 84.0689 11.2565 83.8471 11.0025C83.6248 10.7486 83.4544 10.4386 83.3357 10.0722C83.2174 9.70613 83.1579 9.29217 83.1579 8.83067C83.1579 8.37342 83.2174 7.96216 83.3357 7.59574C83.4544 7.22971 83.6248 6.91973 83.8471 6.6654C84.0689 6.41145 84.3422 6.21704 84.6657 6.08137C84.9896 5.94609 85.3591 5.87845 85.7739 5.87845C86.1843 5.87845 86.5504 5.94609 86.8723 6.08137C87.1939 6.21704 87.466 6.41145 87.6883 6.6654C87.9101 6.91934 88.0806 7.22933 88.1992 7.59574C88.3179 7.96178 88.3771 8.37342 88.3771 8.83067C88.3771 9.29256 88.3175 9.70613 88.1992 10.0722Z" fill="#B2A89A"/>
<path d="M101.147 6.03721C101.003 5.66886 100.779 5.3496 100.477 5.07865C100.174 4.8077 99.789 4.59512 99.3217 4.44051C98.8536 4.28629 98.2939 4.20898 97.6423 4.20898H94.3789V13.4595H96.5249V10.3674H97.6423C98.2812 10.3674 98.8347 10.2901 99.3024 10.1358C99.7701 9.98124 100.157 9.76672 100.461 9.49113C100.766 9.21593 100.993 8.88585 101.141 8.50087C101.289 8.1159 101.363 7.69228 101.363 7.23117C101.363 6.80329 101.291 6.40557 101.147 6.03721ZM98.8486 8.34859C98.6032 8.61528 98.2008 8.74863 97.6423 8.74863H96.5249V5.81535H97.6423C97.9132 5.81535 98.1471 5.84936 98.3438 5.91701C98.5405 5.98465 98.7033 6.08128 98.8324 6.20612C98.9615 6.33097 99.0581 6.48016 99.1215 6.65371C99.1853 6.82764 99.2169 7.02013 99.2169 7.23155C99.2169 7.70929 99.0936 8.0815 98.8486 8.34859Z" fill="#B2A89A"/>
<path d="M65.3125 8.37071C65.12 8.18015 64.8996 8.02362 64.6522 7.90109C64.4045 7.77818 64.1518 7.6715 63.8936 7.58028C63.6354 7.48945 63.3825 7.40673 63.1348 7.33252C62.8874 7.25831 62.6672 7.17675 62.4747 7.08824C62.2822 6.99934 62.1264 6.89344 62.0082 6.77052C61.8895 6.648 61.8303 6.49339 61.8303 6.30709C61.8303 6.01488 61.9289 5.78336 62.1257 5.61174C62.3224 5.44013 62.622 5.35471 63.0243 5.35471C63.257 5.35471 63.4645 5.38563 63.6465 5.4467C63.8286 5.50816 63.9906 5.57696 64.1325 5.6531C64.2743 5.72925 64.4011 5.79804 64.5136 5.8595C64.6257 5.92096 64.7303 5.95149 64.8277 5.95149C64.9379 5.95149 65.0276 5.92598 65.0976 5.87535C65.1676 5.82471 65.234 5.74819 65.2974 5.64692L65.8308 4.65009C65.6658 4.49741 65.4786 4.36097 65.2687 4.24038C65.0592 4.11979 64.8339 4.0162 64.5927 3.92923C64.3515 3.84227 64.0965 3.77656 63.8279 3.7325C63.5589 3.68805 63.2828 3.66602 62.9991 3.66602C62.4912 3.66602 62.0406 3.74332 61.6468 3.89754C61.2533 4.05215 60.9208 4.25855 60.6498 4.51674C60.3789 4.77493 60.1737 5.06907 60.0337 5.39916C59.8942 5.72925 59.8242 6.06822 59.8242 6.41493C59.8242 6.84667 59.8835 7.20961 60.0021 7.50375C60.1208 7.79789 60.2762 8.04333 60.4691 8.24045C60.6615 8.43719 60.8806 8.59605 61.126 8.71664C61.3715 8.83723 61.6236 8.93889 61.8818 9.02121C62.14 9.10393 62.392 9.17891 62.6374 9.24655C62.8829 9.3142 63.1019 9.39266 63.2944 9.48156C63.4869 9.57046 63.6428 9.68255 63.761 9.81783C63.8793 9.95349 63.9388 10.129 63.9388 10.3447C63.9388 10.7173 63.8309 10.9894 63.6148 11.1606C63.3988 11.3318 63.0962 11.4176 62.707 11.4176C62.419 11.4176 62.1693 11.3774 61.9579 11.297C61.7461 11.2166 61.5586 11.1277 61.3959 11.0303C61.2328 10.9329 61.0871 10.844 60.9576 10.7636C60.8285 10.6832 60.7005 10.643 60.5733 10.643C60.4759 10.643 60.3863 10.6674 60.3036 10.7161C60.2213 10.7648 60.1544 10.8251 60.1038 10.897L59.4688 11.9C59.6507 12.0821 59.8645 12.2471 60.11 12.3955C60.3554 12.5436 60.6179 12.6715 60.8973 12.7797C61.1768 12.8876 61.4655 12.971 61.7639 13.0306C62.0623 13.0897 62.3553 13.1195 62.6432 13.1195C63.1681 13.1195 63.6369 13.0402 64.0497 12.8814C64.4625 12.7225 64.8093 12.5049 65.091 12.2274C65.3724 11.9502 65.5872 11.6252 65.7353 11.253C65.8833 10.8804 65.9576 10.4807 65.9576 10.0528C65.9576 9.66786 65.8985 9.33855 65.7798 9.06567C65.6608 8.79279 65.5054 8.56126 65.3125 8.37071Z" fill="#444463"/>
<path d="M75.6789 7.63391H71.9204V3.76758H69.7617V13.0181H71.9204V9.10693H75.6789V13.0181H77.8376V3.76758H75.6789V7.63391Z" fill="#444463"/>
<path d="M89.9326 5.03081C89.5136 4.60757 89.0088 4.27439 88.4182 4.03089C87.828 3.78738 87.1729 3.66602 86.4535 3.66602C85.7338 3.66602 85.0779 3.78661 84.485 4.02779C83.8925 4.26898 83.3858 4.60139 82.9644 5.02462C82.5435 5.44786 82.2173 5.94724 81.9866 6.52277C81.7558 7.09868 81.6406 7.72059 81.6406 8.38926C81.6406 9.05832 81.7562 9.68061 81.9866 10.2561C82.2173 10.832 82.5435 11.3322 82.9644 11.7578C83.3854 12.1833 83.8925 12.5165 84.485 12.7577C85.0779 12.9989 85.7335 13.1195 86.4535 13.1195C87.1729 13.1195 87.828 12.9989 88.4182 12.7577C89.0088 12.5165 89.5136 12.1833 89.9326 11.7578C90.352 11.3322 90.6762 10.832 90.907 10.2561C91.1377 9.68061 91.2529 9.05832 91.2529 8.38926C91.2529 7.72484 91.1377 7.10486 90.907 6.52895C90.6766 5.95381 90.352 5.45443 89.9326 5.03081ZM88.8785 9.63114C88.7599 9.99717 88.5894 10.3072 88.3676 10.5615C88.1453 10.8154 87.8732 11.0091 87.5516 11.1424C87.2301 11.2758 86.8636 11.3423 86.4532 11.3423C86.0384 11.3423 85.6689 11.2758 85.345 11.1424C85.0215 11.0091 84.7482 10.8154 84.5264 10.5615C84.3041 10.3075 84.1337 9.99756 84.015 9.63114C83.8967 9.26511 83.8376 8.85115 83.8376 8.38965C83.8376 7.9324 83.8967 7.52114 84.015 7.15472C84.1337 6.78869 84.3041 6.4787 84.5264 6.22437C84.7482 5.97043 85.0219 5.77602 85.345 5.64035C85.6689 5.50507 86.0384 5.43743 86.4532 5.43743C86.8636 5.43743 87.2297 5.50507 87.5516 5.64035C87.8732 5.77602 88.1453 5.97043 88.3676 6.22437C88.5894 6.47832 88.7599 6.78831 88.8785 7.15472C88.9972 7.52076 89.0564 7.9324 89.0564 8.38965C89.0567 8.85115 88.9972 9.26472 88.8785 9.63114Z" fill="#444463"/>
<path d="M101.823 5.59629C101.679 5.22794 101.455 4.90829 101.153 4.63773C100.851 4.36678 100.465 4.1542 99.9975 3.99959C99.5294 3.84537 98.9697 3.76807 98.3181 3.76807H95.0547V13.0186H97.2006V9.92645H98.3181C98.957 9.92645 99.5105 9.84915 99.9782 9.69493C100.446 9.54032 100.832 9.3258 101.137 9.05022C101.442 8.77502 101.668 8.44493 101.816 8.05996C101.964 7.67498 102.039 7.25136 102.039 6.79025C102.039 6.36237 101.967 5.96426 101.823 5.59629ZM99.5244 7.90728C99.2789 8.17398 98.8766 8.30733 98.3181 8.30733H97.2006V5.37405H98.3181C98.589 5.37405 98.8229 5.40806 99.0196 5.4757C99.2163 5.54334 99.379 5.63997 99.5081 5.76482C99.6372 5.88966 99.7339 6.03886 99.7973 6.2124C99.861 6.38634 99.8927 6.57882 99.8927 6.79025C99.8927 7.26837 99.7698 7.64059 99.5244 7.90728Z" fill="#444463"/>
<path d="M138.37 71.957V69.8957H135.164V66.3169H134.305V93.2873H135.164V89.3935H138.37V87.3319H135.164V71.957H138.37Z" fill="#55557C"/>
<path d="M146.33 93.4014H139.344C138.142 93.4014 137.168 92.4269 137.168 91.2253V68.3206C137.168 67.1189 138.142 66.1445 139.344 66.1445H146.33C147.532 66.1445 148.506 67.1185 148.506 68.3206V91.2253C148.506 92.4269 147.532 93.4014 146.33 93.4014Z" fill="#FF0080"/>
<path d="M137.168 79.6001V85.1907C141.851 82.4561 145.712 77.5736 148.506 73.1213V68.3211C148.506 67.351 147.871 66.53 146.994 66.249C144.994 70.5096 141.667 76.2795 137.168 79.6001Z" fill="#FFAD91"/>
<path d="M139.344 93.4015H146.33C147.531 93.4015 148.506 92.4271 148.506 91.2254V76.3101C145.233 83.1653 141.235 88.9472 137.168 88.5329V91.2254C137.168 92.4271 138.142 93.4015 139.344 93.4015Z" fill="#FF0080"/>
</g>
<defs>
<clipPath id="clip0_387_1817">
<rect width="162" height="132" fill="white"/>
</clipPath>
</defs>
</svg>
